<svg xmlns="http://www.w3.org/2000/svg" xmlns:xlink="http://www.w3.org/1999/xlink" width="540.416" height="297.1" viewBox="0 0 540.416 297.1">
  <defs>
    <clipPath id="clip-path">
      <path id="path120" d="M436.443-473.332s-22.732-11.619-41,24.919-24.359,26.389-71.045,68-42.627,91.344,0,116.718,77.134-5.076,115.7,39.581,102.509,25.373,115.7-29.432-26.388-94.39,1.013-147.166-10.148-61.91-47.7-63.941-58.6-.741-72.672-8.68Z"/>
    </clipPath>
    <linearGradient id="linear-gradient" x1="-1.056" y1="1.723" x2="-1.056" y2="1.723" gradientUnits="objectBoundingBox">
      <stop offset="0" stop-color="#5352ed"/>
      <stop offset="1" stop-color="#5352ed"/>
    </linearGradient>
  </defs>
  <g id="bg1" transform="translate(-275.805 422.443)">
    <g id="g12" transform="translate(-38 -20)">
      <g id="g116" transform="translate(288 94)">
        <g id="g118" clip-path="url(#clip-path)">
          <path id="path130" d="M436.443-473.332s-22.732-11.619-41,24.919-24.359,26.389-71.045,68-42.627,91.344,0,116.718,77.134-5.076,115.7,39.581,102.509,25.373,115.7-29.432-26.388-94.39,1.013-147.166-10.148-61.91-47.7-63.941-58.6-.741-72.672-8.68" fill="url(#linear-gradient)"/>
        </g>
      </g>
      <path id="path134" d="M437.555-216.555a4.446,4.446,0,0,1-4.445,4.445,4.445,4.445,0,0,1-4.444-4.445A4.444,4.444,0,0,1,433.11-221a4.445,4.445,0,0,1,4.445,4.444" transform="translate(288 94)" fill="#5352ed"/>
      <path id="path136" d="M460.888-486.665a9.777,9.777,0,0,1-9.779,9.777,9.777,9.777,0,0,1-9.777-9.777,9.777,9.777,0,0,1,9.777-9.777,9.777,9.777,0,0,1,9.779,9.777" transform="translate(288 94)" fill="#5352ed"/>
      <path id="path138" d="M509.776-295.11H356a7.556,7.556,0,0,1-7.556-7.556V-407.555A7.555,7.555,0,0,1,356-415.11H509.776a7.555,7.555,0,0,1,7.556,7.555v104.889a7.556,7.556,0,0,1-7.556,7.556" transform="translate(288 94)" fill="#e8ebf8"/>
      <path id="path140" d="M509.121-296.69H356.654a5.988,5.988,0,0,1-5.988-5.988V-407.543a5.989,5.989,0,0,1,5.988-5.988H509.121a5.989,5.989,0,0,1,5.988,5.988v104.865a5.988,5.988,0,0,1-5.988,5.988" transform="translate(288 94)" fill="#84b6e5"/>
      <path id="path142" d="M504.308-307H361.467a3.69,3.69,0,0,1-3.691-3.691v-93.653a3.69,3.69,0,0,1,3.691-3.689H504.308A3.69,3.69,0,0,1,508-404.343v93.653A3.69,3.69,0,0,1,504.308-307" transform="translate(288 94)" fill="#4c64b8"/>
      <path id="path144" d="M344.343-301.333a6.266,6.266,0,0,0-.788,3A6.333,6.333,0,0,0,349.888-292h166a6.334,6.334,0,0,0,6.333-6.333,6.267,6.267,0,0,0-.789-3H344.343" transform="translate(288 94)" fill="#e8ebf8"/>
      <path id="path146" d="M344.343-295.333A6.305,6.305,0,0,0,349.888-292h166a6.309,6.309,0,0,0,5.545-3.333H344.343" transform="translate(288 94)" fill="#ced8f0"/>
      <path id="path148" d="M376.922-395.512H365.743a1.077,1.077,0,0,1-1.077-1.077,1.076,1.076,0,0,1,1.077-1.076h11.179A1.076,1.076,0,0,1,378-396.59a1.077,1.077,0,0,1-1.077,1.077" transform="translate(288 94)" fill="#5fccf5"/>
      <path id="path150" d="M461.922-395.512H450.743a1.077,1.077,0,0,1-1.077-1.077,1.076,1.076,0,0,1,1.077-1.076h11.179A1.076,1.076,0,0,1,463-396.59a1.077,1.077,0,0,1-1.077,1.077" transform="translate(288 94)" fill="#e8ebf8"/>
      <path id="path152" d="M446.144-395.512H382.187a1.077,1.077,0,0,1-1.077-1.077,1.076,1.076,0,0,1,1.077-1.076h63.957a1.076,1.076,0,0,1,1.077,1.076,1.077,1.077,0,0,1-1.077,1.077" transform="translate(288 94)" fill="#5fccf5"/>
      <path id="path154" d="M402.588-391.064h-20.4a1.076,1.076,0,0,1-1.077-1.076,1.076,1.076,0,0,1,1.077-1.076h20.4a1.076,1.076,0,0,1,1.077,1.076,1.076,1.076,0,0,1-1.077,1.076" transform="translate(288 94)" fill="#f030a2"/>
      <path id="path156" d="M436.144-391.064h-29.4a1.076,1.076,0,0,1-1.077-1.076,1.076,1.076,0,0,1,1.077-1.076h29.4a1.076,1.076,0,0,1,1.077,1.076,1.076,1.076,0,0,1-1.077,1.076" transform="translate(288 94)" fill="#e8ebf8"/>
      <path id="path158" d="M446.172-391.064H439.41a1.076,1.076,0,0,1-1.077-1.076,1.076,1.076,0,0,1,1.077-1.076h6.763a1.077,1.077,0,0,1,1.077,1.076,1.077,1.077,0,0,1-1.077,1.076" transform="translate(288 94)" fill="#e8ebf8"/>
      <path id="path160" d="M446.144-369.4H382.187a1.077,1.077,0,0,1-1.077-1.076,1.077,1.077,0,0,1,1.077-1.077h63.957a1.077,1.077,0,0,1,1.077,1.077,1.077,1.077,0,0,1-1.077,1.076" transform="translate(288 94)" fill="#e8ebf8"/>
      <path id="path162" d="M376.922-364.952H365.743a1.077,1.077,0,0,1-1.077-1.076,1.077,1.077,0,0,1,1.077-1.077h11.179A1.077,1.077,0,0,1,378-366.028a1.077,1.077,0,0,1-1.077,1.076" transform="translate(288 94)" fill="#5fccf5"/>
      <path id="path164" d="M461.922-364.952H450.743a1.077,1.077,0,0,1-1.077-1.076,1.077,1.077,0,0,1,1.077-1.077h11.179A1.077,1.077,0,0,1,463-366.028a1.077,1.077,0,0,1-1.077,1.076" transform="translate(288 94)" fill="#5fccf5"/>
      <path id="path166" d="M402.588-364.952h-20.4a1.077,1.077,0,0,1-1.077-1.076,1.077,1.077,0,0,1,1.077-1.077h20.4a1.077,1.077,0,0,1,1.077,1.077,1.077,1.077,0,0,1-1.077,1.076" transform="translate(288 94)" fill="#e8ebf8"/>
      <path id="path168" d="M436.144-364.952h-29.4a1.077,1.077,0,0,1-1.077-1.076,1.077,1.077,0,0,1,1.077-1.077h29.4a1.077,1.077,0,0,1,1.077,1.077,1.077,1.077,0,0,1-1.077,1.076" transform="translate(288 94)" fill="#f030a2"/>
      <path id="path170" d="M446.172-364.952H439.41a1.077,1.077,0,0,1-1.077-1.076,1.077,1.077,0,0,1,1.077-1.077h6.763a1.078,1.078,0,0,1,1.077,1.077,1.077,1.077,0,0,1-1.077,1.076" transform="translate(288 94)" fill="#f030a2"/>
      <path id="path172" d="M462.006-386.615H382.187a1.076,1.076,0,0,1-1.077-1.076,1.076,1.076,0,0,1,1.077-1.076h79.819a1.077,1.077,0,0,1,1.077,1.076,1.077,1.077,0,0,1-1.077,1.076" transform="translate(288 94)" fill="#f030a2"/>
      <path id="path174" d="M445.612-382.166H426.359a.8.8,0,0,1-.8-.8v-.545a.8.8,0,0,1,.8-.8h19.253a.8.8,0,0,1,.8.8v.545a.8.8,0,0,1-.8.8" transform="translate(288 94)" fill="#5fccf5"/>
      <path id="path176" d="M408.7-382.166H382.187a1.076,1.076,0,0,1-1.077-1.076,1.077,1.077,0,0,1,1.077-1.077H408.7a1.077,1.077,0,0,1,1.076,1.077,1.076,1.076,0,0,1-1.076,1.076" transform="translate(288 94)" fill="#e8ebf8"/>
      <path id="path178" d="M422.811-382.166H412.3a1.076,1.076,0,0,1-1.076-1.076,1.077,1.077,0,0,1,1.076-1.077h10.513a1.077,1.077,0,0,1,1.077,1.077,1.076,1.076,0,0,1-1.077,1.076" transform="translate(288 94)" fill="#5fccf5"/>
      <path id="path180" d="M376.922-377.864H365.743a1.077,1.077,0,0,1-1.077-1.077,1.077,1.077,0,0,1,1.077-1.076h11.179A1.077,1.077,0,0,1,378-378.942a1.077,1.077,0,0,1-1.077,1.077" transform="translate(288 94)" fill="#e8ebf8"/>
      <path id="path182" d="M462.006-377.864H382.187a1.077,1.077,0,0,1-1.077-1.077,1.077,1.077,0,0,1,1.077-1.076h79.819a1.077,1.077,0,0,1,1.077,1.076,1.078,1.078,0,0,1-1.077,1.077" transform="translate(288 94)" fill="#e8ebf8"/>
      <path id="path184" d="M376.922-360.832H365.743a1.076,1.076,0,0,1-1.077-1.076,1.077,1.077,0,0,1,1.077-1.077h11.179A1.077,1.077,0,0,1,378-361.908a1.076,1.076,0,0,1-1.077,1.076" transform="translate(288 94)" fill="#e8ebf8"/>
      <path id="path186" d="M453.471-360.832H426.5a.944.944,0,0,1-.944-.945v-.263a.945.945,0,0,1,.944-.945h26.972a.946.946,0,0,1,.945.945v.263a.945.945,0,0,1-.945.945" transform="translate(288 94)" fill="#e8ebf8"/>
      <path id="path188" d="M408.7-360.832H382.187a1.076,1.076,0,0,1-1.077-1.076,1.077,1.077,0,0,1,1.077-1.077H408.7a1.077,1.077,0,0,1,1.076,1.077,1.076,1.076,0,0,1-1.076,1.076" transform="translate(288 94)" fill="#e8ebf8"/>
      <path id="path190" d="M422.811-360.832H412.3a1.076,1.076,0,0,1-1.076-1.076,1.077,1.077,0,0,1,1.076-1.077h10.513a1.077,1.077,0,0,1,1.077,1.077,1.076,1.076,0,0,1-1.077,1.076" transform="translate(288 94)" fill="#e8ebf8"/>
      <path id="path192" d="M376.922-356.531H365.743a1.077,1.077,0,0,1-1.077-1.077,1.077,1.077,0,0,1,1.077-1.076h11.179A1.077,1.077,0,0,1,378-357.608a1.077,1.077,0,0,1-1.077,1.077" transform="translate(288 94)" fill="#fabd41"/>
      <path id="path194" d="M396.006-356.531H382.187a1.077,1.077,0,0,1-1.077-1.077,1.077,1.077,0,0,1,1.077-1.076h13.819a1.077,1.077,0,0,1,1.077,1.076,1.078,1.078,0,0,1-1.077,1.077" transform="translate(288 94)" fill="#5fccf5"/>
      <path id="path196" d="M365.743-373.415a1.077,1.077,0,0,1-1.077-1.077,1.077,1.077,0,0,1,1.077-1.076h11.179A1.077,1.077,0,0,1,378-374.492a1.077,1.077,0,0,1-1.077,1.077" transform="translate(288 94)" fill="#5fccf5"/>
      <path id="path198" d="M457.162-373.415h-30.6a1,1,0,0,1-1-1.005v-.144a1,1,0,0,1,1-1h30.6a1,1,0,0,1,1,1v.144a1,1,0,0,1-1,1.005" transform="translate(288 94)" fill="#e8ebf8"/>
      <path id="path200" d="M408.7-373.415H382.187a1.077,1.077,0,0,1-1.077-1.077,1.077,1.077,0,0,1,1.077-1.076H408.7a1.076,1.076,0,0,1,1.076,1.076,1.077,1.077,0,0,1-1.076,1.077" transform="translate(288 94)" fill="#fabd41"/>
      <path id="path202" d="M422.811-373.415H412.3a1.077,1.077,0,0,1-1.076-1.077,1.076,1.076,0,0,1,1.076-1.076h10.513a1.077,1.077,0,0,1,1.077,1.076,1.077,1.077,0,0,1-1.077,1.077" transform="translate(288 94)" fill="#fabd41"/>
      <path id="path204" d="M456.786-351.82h-6.407a1.213,1.213,0,0,1-1.213-1.213,1.214,1.214,0,0,1,1.213-1.215h6.407A1.214,1.214,0,0,1,458-353.034a1.213,1.213,0,0,1-1.213,1.213" transform="translate(288 94)" fill="#e8ebf8"/>
      <path id="path206" d="M446.144-351.958H382.187a1.076,1.076,0,0,1-1.077-1.076,1.076,1.076,0,0,1,1.077-1.076h63.957a1.076,1.076,0,0,1,1.077,1.076,1.076,1.076,0,0,1-1.077,1.076" transform="translate(288 94)" fill="#e8ebf8"/>
      <path id="path208" d="M461.922-347.508H450.743a1.076,1.076,0,0,1-1.077-1.076,1.077,1.077,0,0,1,1.077-1.077h11.179A1.077,1.077,0,0,1,463-348.585a1.076,1.076,0,0,1-1.077,1.076" transform="translate(288 94)" fill="#e8ebf8"/>
      <path id="path210" d="M402.588-347.508h-20.4a1.076,1.076,0,0,1-1.077-1.076,1.077,1.077,0,0,1,1.077-1.077h20.4a1.077,1.077,0,0,1,1.077,1.077,1.076,1.076,0,0,1-1.077,1.076" transform="translate(288 94)" fill="#e8ebf8"/>
      <path id="path212" d="M436.144-347.508h-29.4a1.076,1.076,0,0,1-1.077-1.076,1.077,1.077,0,0,1,1.077-1.077h29.4a1.077,1.077,0,0,1,1.077,1.077,1.076,1.076,0,0,1-1.077,1.076" transform="translate(288 94)" fill="#e8ebf8"/>
      <path id="path214" d="M446.172-347.508H439.41a1.076,1.076,0,0,1-1.077-1.076,1.077,1.077,0,0,1,1.077-1.077h6.763a1.078,1.078,0,0,1,1.077,1.077,1.077,1.077,0,0,1-1.077,1.076" transform="translate(288 94)" fill="#e8ebf8"/>
      <path id="path216" d="M461.922-325.847H450.743a1.075,1.075,0,0,1-1.077-1.075A1.076,1.076,0,0,1,450.743-328h11.179A1.076,1.076,0,0,1,463-326.922a1.075,1.075,0,0,1-1.077,1.075" transform="translate(288 94)" fill="#e8ebf8"/>
      <path id="path218" d="M446.144-325.847H382.187a1.075,1.075,0,0,1-1.077-1.075A1.076,1.076,0,0,1,382.187-328h63.957a1.076,1.076,0,0,1,1.077,1.077,1.075,1.075,0,0,1-1.077,1.075" transform="translate(288 94)" fill="#e8ebf8"/>
      <path id="path220" d="M376.922-321.4H365.743a1.076,1.076,0,0,1-1.077-1.075,1.076,1.076,0,0,1,1.077-1.077h11.179A1.076,1.076,0,0,1,378-322.473a1.076,1.076,0,0,1-1.077,1.075" transform="translate(288 94)" fill="#f030a2"/>
      <path id="path222" d="M455.023-321.4h-4.631a.727.727,0,0,1-.727-.727v-.7a.727.727,0,0,1,.727-.727h4.631a.728.728,0,0,1,.727.727v.7a.728.728,0,0,1-.727.727" transform="translate(288 94)" fill="#5fccf5"/>
      <path id="path224" d="M402.588-321.4h-20.4a1.076,1.076,0,0,1-1.077-1.075,1.076,1.076,0,0,1,1.077-1.077h20.4a1.076,1.076,0,0,1,1.077,1.077,1.076,1.076,0,0,1-1.077,1.075" transform="translate(288 94)" fill="#5fccf5"/>
      <path id="path226" d="M436.144-321.4h-29.4a1.076,1.076,0,0,1-1.077-1.075,1.076,1.076,0,0,1,1.077-1.077h29.4a1.076,1.076,0,0,1,1.077,1.077,1.076,1.076,0,0,1-1.077,1.075" transform="translate(288 94)" fill="#e8ebf8"/>
      <path id="path228" d="M446.172-321.4H439.41a1.076,1.076,0,0,1-1.077-1.075,1.076,1.076,0,0,1,1.077-1.077h6.763a1.077,1.077,0,0,1,1.077,1.077,1.076,1.076,0,0,1-1.077,1.075" transform="translate(288 94)" fill="#5fccf5"/>
      <path id="path230" d="M376.922-343.059H365.743a1.077,1.077,0,0,1-1.077-1.077,1.077,1.077,0,0,1,1.077-1.076h11.179A1.077,1.077,0,0,1,378-344.136a1.077,1.077,0,0,1-1.077,1.077" transform="translate(288 94)" fill="#f030a2"/>
      <path id="path234" d="M376.922-338.61H365.743a1.077,1.077,0,0,1-1.077-1.077,1.077,1.077,0,0,1,1.077-1.076h11.179A1.077,1.077,0,0,1,378-339.687a1.077,1.077,0,0,1-1.077,1.077" transform="translate(288 94)" fill="#e8ebf8"/>
      <path id="path236" d="M461.955-338.61H428.794a1.044,1.044,0,0,1-1.044-1.045v-.064a1.044,1.044,0,0,1,1.044-1.044h33.161A1.045,1.045,0,0,1,463-339.719v.064a1.045,1.045,0,0,1-1.044,1.045" transform="translate(288 94)" fill="#e8ebf8"/>
      <path id="path238" d="M408.7-338.61H382.187a1.077,1.077,0,0,1-1.077-1.077,1.077,1.077,0,0,1,1.077-1.076H408.7a1.076,1.076,0,0,1,1.076,1.076,1.077,1.077,0,0,1-1.076,1.077" transform="translate(288 94)" fill="#e8ebf8"/>
      <path id="path240" d="M422.811-338.61H412.3a1.077,1.077,0,0,1-1.076-1.077,1.076,1.076,0,0,1,1.076-1.076h10.513a1.077,1.077,0,0,1,1.077,1.076,1.077,1.077,0,0,1-1.077,1.077" transform="translate(288 94)" fill="#e8ebf8"/>
      <path id="path242" d="M376.922-334.309H365.743a1.077,1.077,0,0,1-1.077-1.077,1.076,1.076,0,0,1,1.077-1.076h11.179A1.076,1.076,0,0,1,378-335.386a1.077,1.077,0,0,1-1.077,1.077" transform="translate(288 94)" fill="#e8ebf8"/>
      <path id="path244" d="M454.971-334.309H382.138a1.03,1.03,0,0,1-1.028-1.029v-.1a1.029,1.029,0,0,1,1.028-1.028h72.833A1.029,1.029,0,0,1,456-335.434v.1a1.03,1.03,0,0,1-1.028,1.029" transform="translate(288 94)" fill="#e8ebf8"/>
      <path id="path246" d="M376.922-317.277H365.743a1.076,1.076,0,0,1-1.077-1.077,1.076,1.076,0,0,1,1.077-1.076h11.179A1.076,1.076,0,0,1,378-318.354a1.076,1.076,0,0,1-1.077,1.077" transform="translate(288 94)" fill="#e8ebf8"/>
      <path id="path248" d="M461.922-317.277H426.631a1.076,1.076,0,0,1-1.076-1.077,1.075,1.075,0,0,1,1.076-1.076h35.291A1.076,1.076,0,0,1,463-318.354a1.076,1.076,0,0,1-1.077,1.077" transform="translate(288 94)" fill="#e8ebf8"/>
      <path id="path250" d="M408.7-317.277H382.187a1.076,1.076,0,0,1-1.077-1.077,1.076,1.076,0,0,1,1.077-1.076H408.7a1.075,1.075,0,0,1,1.076,1.076,1.076,1.076,0,0,1-1.076,1.077" transform="translate(288 94)" fill="#e8ebf8"/>
      <path id="path252" d="M422.811-317.277H412.3a1.076,1.076,0,0,1-1.076-1.077,1.075,1.075,0,0,1,1.076-1.076h10.513a1.076,1.076,0,0,1,1.077,1.076,1.076,1.076,0,0,1-1.077,1.077" transform="translate(288 94)" fill="#e8ebf8"/>
      <path id="path254" d="M429.747-312.975h-47.8a.838.838,0,0,1-.837-.836v-.481a.838.838,0,0,1,.837-.837h47.8a.838.838,0,0,1,.836.837v.481a.838.838,0,0,1-.836.836" transform="translate(288 94)" fill="#fabd41"/>
      <path id="path256" d="M459.048-329.861H426.587a1.033,1.033,0,0,1-1.032-1.033v-.085a1.033,1.033,0,0,1,1.032-1.033h32.461a1.034,1.034,0,0,1,1.035,1.033v.085a1.034,1.034,0,0,1-1.035,1.033" transform="translate(288 94)" fill="#f030a2"/>
      <path id="path258" d="M408.7-329.861H382.187a1.076,1.076,0,0,1-1.077-1.076,1.076,1.076,0,0,1,1.077-1.076H408.7a1.075,1.075,0,0,1,1.076,1.076,1.075,1.075,0,0,1-1.076,1.076" transform="translate(288 94)" fill="#fabd41"/>
      <path id="path260" d="M422.811-329.861H412.3a1.076,1.076,0,0,1-1.076-1.076,1.075,1.075,0,0,1,1.076-1.076h10.513a1.076,1.076,0,0,1,1.077,1.076,1.076,1.076,0,0,1-1.077,1.076" transform="translate(288 94)" fill="#fabd41"/>
      <path id="path262" d="M522.332-355.776H475a2.333,2.333,0,0,1-2.333-2.333v-67.333A2.332,2.332,0,0,1,475-427.776h47.333a2.332,2.332,0,0,1,2.333,2.333v67.333a2.333,2.333,0,0,1-2.333,2.333" transform="translate(288 94)" fill="#e8ebf8"/>
      <path id="path264" d="M522.332-427.776H475a2.332,2.332,0,0,0-2.333,2.333v8.333h52v-8.333a2.332,2.332,0,0,0-2.333-2.333" transform="translate(288 94)" fill="#84b6e5"/>
      <path id="path266" d="M511.137-420.638h-34a1.444,1.444,0,0,1-1.444-1.444,1.445,1.445,0,0,1,1.444-1.445h34a1.446,1.446,0,0,1,1.445,1.445,1.445,1.445,0,0,1-1.445,1.444" transform="translate(288 94)" fill="#e8ebf8"/>
      <path id="path268" d="M487.832-388.832h-5.5v-10.333h5.5v10.333" transform="translate(288 94)" fill="#84b6e5"/>
      <path id="path270" d="M496.832-388.832h-5.5V-406.5h5.5v17.667" transform="translate(288 94)" fill="#84b6e5"/>
      <path id="path272" d="M505.832-388.832h-5.5v-19.833h5.5v19.833" transform="translate(288 94)" fill="#84b6e5"/>
      <path id="path274" d="M514.832-388.832h-5.5v-21h5.5v21" transform="translate(288 94)" fill="#84b6e5"/>
      <path id="path276" d="M501.832-379h-6.167a2,2,0,0,1-2-2,2,2,0,0,1,2-2h6.167a2,2,0,0,1,2,2,2,2,0,0,1-2,2" transform="translate(288 94)" fill="#84b6e5"/>
      <path id="path278" d="M488.165-367.5H482a2,2,0,0,1-2-2,2,2,0,0,1,2-2h6.167a2,2,0,0,1,2,2,2,2,0,0,1-2,2" transform="translate(288 94)" fill="#f030a2"/>
      <path id="path280" d="M501.832-367.5h-6.167a2,2,0,0,1-2-2,2,2,0,0,1,2-2h6.167a2,2,0,0,1,2,2,2,2,0,0,1-2,2" transform="translate(288 94)" fill="#fabd41"/>
      <path id="path282" d="M515.5-367.5h-6.167a2,2,0,0,1-2-2,2,2,0,0,1,2-2H515.5a2,2,0,0,1,2,2,2,2,0,0,1-2,2" transform="translate(288 94)" fill="#f030a2"/>
      <path id="path284" d="M498.665-372.5h0a.416.416,0,0,1-.416-.416v-4.5a.416.416,0,0,1,.416-.417.417.417,0,0,1,.417.417v4.5a.417.417,0,0,1-.417.416" transform="translate(288 94)" fill="#84b6e5"/>
      <path id="path286" d="M493.159-369.5h0a.418.418,0,0,1-.416.417h-1.577a.417.417,0,0,1-.416-.417.416.416,0,0,1,.416-.416h1.577a.417.417,0,0,1,.416.416" transform="translate(288 94)" fill="#84b6e5"/>
      <path id="path288" d="M506.743-369.5h0a.418.418,0,0,1-.417.417h-1.576a.418.418,0,0,1-.417-.417.417.417,0,0,1,.417-.416h1.576a.417.417,0,0,1,.417.416" transform="translate(288 94)" fill="#84b6e5"/>
      <path id="path290" d="M493.569-313.11h-18a2.679,2.679,0,0,1-2.679-2.68v-30.419a2.679,2.679,0,0,1,2.679-2.68h18a2.68,2.68,0,0,1,2.68,2.68v30.419a2.68,2.68,0,0,1-2.68,2.68" transform="translate(288 94)" fill="#84b6e5"/>
      <path id="path292" d="M493.508-317.749h-17.88a1.346,1.346,0,0,1-1.345-1.345v-26.9a1.345,1.345,0,0,1,1.345-1.344h17.88a1.345,1.345,0,0,1,1.345,1.344v26.9a1.346,1.346,0,0,1-1.345,1.345" transform="translate(288 94)" fill="#4c64b8"/>
      <path id="path294" d="M486.027-314.943H483.36a.528.528,0,0,1-.528-.528.527.527,0,0,1,.528-.528h2.667a.528.528,0,0,1,.528.528.529.529,0,0,1-.528.528" transform="translate(288 94)" fill="#4c64b8"/>
      <path id="path296" d="M522.165-226.666h-8.636a57.63,57.63,0,0,0-6.867-15.76l5.893-6.325a8,8,0,0,0-.4-11.308L501.915-269.6a8,8,0,0,0-11.307.4l-5.889,6.32A57.554,57.554,0,0,0,472.5-267.7v-8.636a8,8,0,0,0-8-8h-14a8,8,0,0,0-8,8v8.636a57.631,57.631,0,0,0-15.76,6.867l-6.325-5.895a8,8,0,0,0-11.308.4l-9.544,10.243a7.945,7.945,0,0,0-2.045,6.465c12.121,2.153,24.184,7.039,36.611,19.151a29.935,29.935,0,0,1,23.372-11.2,30,30,0,0,1,30,30,29.873,29.873,0,0,1-2.509,12.012,63.54,63.54,0,0,0,45.176-13.229v-5.783a8,8,0,0,0-8-8" transform="translate(288 94)" fill="#fbc810"/>
      <path id="path298" d="M418.832-463.666a29.9,29.9,0,0,1-11.277-2.2c-4.064,4-8.192,9.609-12.113,17.452-1.127,2.255-2.207,4.331-3.253,6.252a57.551,57.551,0,0,0,11.644,4.527V-429a8,8,0,0,0,8,8h14a8,8,0,0,0,8-8v-8.636a57.632,57.632,0,0,0,15.76-6.867l6.325,5.893a8,8,0,0,0,11.308-.4l9.544-10.243a8,8,0,0,0-.4-11.307l-6.236-5.811c-13.144-.744-22.952-2-30.725-5.477a29.892,29.892,0,0,1-20.576,8.179" transform="translate(288 94)" fill="#84b6e5"/>
      <path id="path300" d="M523.041-221a21.124,21.124,0,0,1,21.124-21.124,21.013,21.013,0,0,1,7.389,1.356,79,79,0,0,0,4.248-12.779c.5-2.089.92-4.152,1.276-6.2-.775-.257-1.557-.5-2.351-.708v-6.08a5.634,5.634,0,0,0-5.635-5.633h-9.856a5.634,5.634,0,0,0-5.635,5.633v6.08a40.608,40.608,0,0,0-11.1,4.836l-4.455-4.151a5.635,5.635,0,0,0-7.963.281l-6.72,7.212a5.635,5.635,0,0,0,.281,7.963l4.451,4.145a40.645,40.645,0,0,0-3.389,8.6h-6.08A5.634,5.634,0,0,0,493-225.927v9.856a5.634,5.634,0,0,0,5.633,5.635h6.08a40.541,40.541,0,0,0,3.455,8.7,64.5,64.5,0,0,0,17.984-8.275A21,21,0,0,1,523.041-221" transform="translate(288 94)" fill="#f030a2"/>
      <path id="path302" d="M370.666-282.666A34.667,34.667,0,0,1,336-248a34.667,34.667,0,0,1-34.667-34.667A34.667,34.667,0,0,1,336-317.333a34.667,34.667,0,0,1,34.667,34.667" transform="translate(288 94)" fill="#d93da7"/>
      <path id="path304" d="M333.487-285.918l-13.769,5.045,13.769,5v5.171L313.8-278.186v-5.375l19.683-7.484v5.127" fill="#fbfdfe"/>
      <path id="path306" d="M337.983-291.045l19.683,7.484v5.375L337.983-270.7v-5.171l13.769-5-13.769-5.045v-5.127" transform="translate(288 94)" fill="#fbfdfe"/>
      <path id="path308" d="M362.666-244a4,4,0,0,1-4,4,4,4,0,0,1-4-4,4,4,0,0,1,4-4,4,4,0,0,1,4,4" transform="translate(288 94)" fill="#d93da7"/>
    </g>
  </g>
</svg>
