<svg xmlns="http://www.w3.org/2000/svg" xmlns:xlink="http://www.w3.org/1999/xlink" width="666.665" height="633.565" viewBox="0 0 666.665 633.565">
  <defs>
    <clipPath id="clip-path">
      <path id="path58" d="M103.382-161.81l-.036-.023.036.023m-.043-.027-.059-.036h0l.059.036"/>
    </clipPath>
    <clipPath id="clip-path-2">
      <path id="path270" d="M432.519-319.462c-1.892,12.561-1.148,28.819-.653,41.473,0,.056-39.627-3.648-44.227-4.317-.271-.04-.543-.079-.813-.121-3.949-.637-7.827-1.536-11.748-2.3-.045-.008,4.285-18.861,4.415-20.115,1.144-11.108,2.115-22.189,2.311-33.363.1-5.441-.019-10.871-.136-16.311-.105-4.8-.039-10.188,2.183-14.571,1.465-2.889,3.932-3.169,6.941-3.1,13.588.332,27.059,2.136,40.559,3.629a14.864,14.864,0,0,1,4.436.957c4.148,1.843,3.655,6.516,3.272,10.267-1.3,12.735-4.635,25.212-6.539,37.867"/>
    </clipPath>
    <clipPath id="clip-path-3">
      <path id="path306" d="M533.5-439.932l-20.98,46.053,28.4,3.759-7.42-49.812"/>
    </clipPath>
    <clipPath id="clip-path-4">
      <path id="path332" d="M477.569-170.842l30.028,4.535-4.561,31.036a5.162,5.162,0,0,1-5.855,4.357l-20.748-3.036a5.161,5.161,0,0,1-4.336-6.008l5.472-30.884"/>
    </clipPath>
  </defs>
  <g id="bg3" transform="translate(0 666.665)">
    <g id="g12">
      <path id="path14" d="M140.4-35.952a2.852,2.852,0,0,1-2.851,2.852,2.852,2.852,0,0,1-2.852-2.852,2.851,2.851,0,0,1,2.852-2.852,2.851,2.851,0,0,1,2.851,2.852" fill="#fff"/>
      <path id="path16" d="M437.172-62.62a2.852,2.852,0,0,1-2.852,2.851,2.851,2.851,0,0,1-2.851-2.851,2.851,2.851,0,0,1,2.851-2.852,2.852,2.852,0,0,1,2.852,2.852" fill="#fff"/>
      <path id="path18" d="M476.051-35.952A2.852,2.852,0,0,1,473.2-33.1a2.853,2.853,0,0,1-2.852-2.852A2.852,2.852,0,0,1,473.2-38.8a2.851,2.851,0,0,1,2.851,2.852" fill="#fff"/>
      <path id="path20" d="M240.978-65.472a2.853,2.853,0,0,1-2.852,2.852,2.852,2.852,0,0,1-2.851-2.852,2.852,2.852,0,0,1,2.851-2.851,2.853,2.853,0,0,1,2.852,2.851" fill="#fff"/>
      <path id="path22" d="M173.122-48.65a2.85,2.85,0,0,1-2.851,2.851,2.851,2.851,0,0,1-2.852-2.851,2.852,2.852,0,0,1,2.852-2.851,2.85,2.85,0,0,1,2.851,2.851" fill="#fff"/>
      <path id="path24" d="M524.709-59.153a5.7,5.7,0,0,1-5.7,5.7,5.7,5.7,0,0,1-5.7-5.7,5.7,5.7,0,0,1,5.7-5.7,5.7,5.7,0,0,1,5.7,5.7" fill="#fff"/>
      <path id="path26" d="M574.588-46.392v-.667a4.085,4.085,0,0,1-4.08-4.08,4.085,4.085,0,0,1,4.08-4.08,4.085,4.085,0,0,1,4.08,4.08,4.085,4.085,0,0,1-4.08,4.08v1.333A5.413,5.413,0,0,0,580-51.138a5.413,5.413,0,0,0-5.413-5.414,5.412,5.412,0,0,0-5.413,5.414,5.412,5.412,0,0,0,5.413,5.413v-.667" fill="#fff"/>
      <path id="path28" d="M574.588-49.632a1.5,1.5,0,0,1-1.505-1.506,1.5,1.5,0,0,1,1.505-1.506,1.506,1.506,0,0,1,1.507,1.506,1.506,1.506,0,0,1-1.507,1.506" fill="#fff"/>
      <path id="path30" d="M565.252-50.472h18.672v-1.333H565.252Z" fill="#fff"/>
      <path id="path32" d="M578.679-59.557l-9.336,16.171,1.155.667,9.336-16.171" fill="#fff"/>
      <path id="path34" d="M569.343-58.891l9.336,16.171,1.155-.667L570.5-59.557" fill="#fff"/>
      <path id="path36" d="M77.593-40.809v-.667a7.156,7.156,0,0,1-5.073-2.1,7.153,7.153,0,0,1-2.1-5.073,7.149,7.149,0,0,1,2.1-5.072,7.144,7.144,0,0,1,5.073-2.1,7.144,7.144,0,0,1,5.072,2.1,7.148,7.148,0,0,1,2.1,5.072,7.152,7.152,0,0,1-2.1,5.073,7.156,7.156,0,0,1-5.072,2.1v1.333A8.509,8.509,0,0,0,86.1-48.65a8.507,8.507,0,0,0-8.507-8.507,8.507,8.507,0,0,0-8.507,8.507,8.509,8.509,0,0,0,8.507,8.508v-.667" fill="#fff"/>
      <path id="path38" d="M77.593-46.162A2.488,2.488,0,0,1,75.1-48.65a2.488,2.488,0,0,1,2.489-2.488,2.487,2.487,0,0,1,2.488,2.488,2.487,2.487,0,0,1-2.488,2.488" fill="#fff"/>
      <path id="path40" d="M62.172-47.984H93.013v-1.333H62.172Z" fill="#fff"/>
      <path id="path42" d="M84.726-62.338,69.306-35.629l1.154.667L85.88-61.672" fill="#fff"/>
      <path id="path44" d="M69.306-61.672l15.42,26.709,1.155-.667L70.46-62.338" fill="#fff"/>
      <path id="path46" d="M666.665-666.665h0Z" fill="#87d7ed"/>
      <path id="path48" d="M94.147-219.615c7.869-23.013,34.871-36.824,33.139-63.509-.8-12.284-7.675-22.045-12.319-33.084-10.921-25.96-20.135-66.821-3.393-92.293,21.448-32.629,71.676-28.959,103.353-43.844,17.18-8.072,31.14-21.669,44.1-35.611,9.421-10.133,18.647-20.708,30.179-28.3,23.675-15.6,56.213-16.232,80.47-1.573,24.643,14.891,40.5,41.227,72.585,35.5,13.3-2.377,26.849-7.521,40.308-3.833a55.862,55.862,0,0,1,32.471,25.059c19.476,32.873-12.287,67.626,1,101.572,9.9,25.313,38.452,34.791,54.368,55.243,12.813,16.464,15.843,37.409,11.913,57.563-7.919,40.617-14.248,83.826-29.363,122.452-16.595,42.4-66.081,42.8-104.746,42.846-58.745.069-119.6,4.649-177.866-2.456-45.461-5.544-98.394-18.669-136.149-46.006-27.242-19.724-52.077-54.542-40.047-89.717" fill="#5758bb"/>
      <path id="path50" d="M168.148-224.106l-10.943-12-13.887,8.872.348.383a38.019,38.019,0,0,0-8.105-3.8l.519.024-2.049-16.352-16.223-.749-3.545,16.095.518.024a38,38,0,0,0-8.421,3.04l.382-.348L93.73-239.035l-12,10.941L90.6-214.206l.382-.349a38.041,38.041,0,0,0-3.8,8.1l.025-.517-16.352,2.049L70.1-188.7,86.2-185.15l.023-.519a37.984,37.984,0,0,0,3.041,8.42l-.349-.381L78.8-164.62l10.942,12,13.887-8.873-.349-.381a38.028,38.028,0,0,0,8.1,3.8l-.517-.023,2.048,16.351,16.223.749,3.545-16.093-.518-.024a38.088,38.088,0,0,0,8.421-3.041l-.383.348,13.012,10.115,12-10.941-8.872-13.888-.383.349a38.079,38.079,0,0,0,3.8-8.105l-.024.519,16.352-2.049.748-16.223-16.093-3.547-.024.517a38.026,38.026,0,0,0-3.04-8.42l.348.383,10.115-13.012" fill="#2e826f"/>
      <path id="path52" d="M147.989-216.715a33.177,33.177,0,0,1-2.163,46.869,33.176,33.176,0,0,1-46.869-2.164,33.175,33.175,0,0,1,2.162-46.868,33.178,33.178,0,0,1,46.869,2.163" fill="#63c1b4"/>
      <g id="g54">
        <g id="g56" clip-path="url(#clip-path)">
          <path id="path62" d="M103.28-161.81h.1v-.062h-.1Z" fill="#9fe0f1"/>
        </g>
      </g>
      <path id="path64" d="M89.742-152.618l-10.942-12L88.914-177.63l.349.381h0a37.985,37.985,0,0,1-3.041-8.42l-.023.519L70.1-188.7l.749-16.223L87.2-206.969l-.025.517h0a38.043,38.043,0,0,1,3.8-8.1h0l-.382.349-8.873-13.888,12-10.941,13.011,10.113-.382.348h0a38,38,0,0,1,8.421-3.04h0l-.518-.024,3.545-16.095,16.223.749,2.049,16.352-.519-.024.047.015a37.985,37.985,0,0,1,4.956,2.072l-2.257,4.52a33.242,33.242,0,0,0-14.843-3.491,33.063,33.063,0,0,0-22.344,8.661,33.175,33.175,0,0,0-2.162,46.868,33.085,33.085,0,0,0,9.683,7.335l-2.258,4.52c-1.018-.508-2.023-1.051-3-1.655l-.036-.023-.006,0-.059-.036h0l.349.381-13.887,8.873" fill="#4a9d8a"/>
      <path id="path66" d="M108.641-164.676a33.085,33.085,0,0,1-9.683-7.335,33.175,33.175,0,0,1,2.162-46.868,33.063,33.063,0,0,1,22.344-8.661,33.242,33.242,0,0,1,14.843,3.491l-29.665,59.373" fill="#81d0c1"/>
      <path id="path68" d="M141.889-211.153a24.92,24.92,0,0,1-1.625,35.205,24.921,24.921,0,0,1-35.206-1.625,24.921,24.921,0,0,1,1.625-35.205,24.923,24.923,0,0,1,35.206,1.625" fill="#226150"/>
      <path id="path70" d="M136.285-206.044a17.337,17.337,0,0,1-1.131,24.493,17.337,17.337,0,0,1-24.493-1.131,17.338,17.338,0,0,1,1.131-24.493,17.337,17.337,0,0,1,24.493,1.131" fill="#fff"/>
      <path id="path72" d="M115.392-306.869l-8.955-4.9-6.443,8.109.285.156a23.931,23.931,0,0,0-5.594-.607L95-304.2l-4.556-9.3-9.8,2.867,1.178,10.289.313-.091a23.937,23.937,0,0,0-4.385,3.527l.156-.285-9.8-3.355-4.9,8.953,8.109,6.444.156-.285a23.9,23.9,0,0,0-.606,5.593l-.091-.312-9.3,4.556,2.867,9.8,10.29-1.179-.091-.313a23.813,23.813,0,0,0,3.527,4.385l-.285-.156-3.356,9.8,8.955,4.9,6.443-8.109-.285-.157a23.784,23.784,0,0,0,5.593.607l-.313.092,4.556,9.3,9.8-2.867L108-259.793l-.313.092a23.88,23.88,0,0,0,4.385-3.527l-.156.285,9.8,3.356,4.9-8.955-8.109-6.443-.156.285a23.9,23.9,0,0,0,.606-5.6l.091.313,9.3-4.556-2.867-9.8-10.29,1.179.091.312a23.873,23.873,0,0,0-3.527-4.384l.286.155,3.356-9.8" fill="#ee8918"/>
      <path id="path74" d="M104.919-298.361a20.851,20.851,0,0,1,8.283,28.3,20.853,20.853,0,0,1-28.3,8.284,20.852,20.852,0,0,1-8.283-28.3,20.851,20.851,0,0,1,28.3-8.283" fill="#e6c677"/>
      <path id="path76" d="M89.657-256.609l-.117-.027h0l.117.027m-25.314-9.2-2.867-9.8,9.3-4.556-9.3,4.556,2.867,9.8,10.29-1.179L64.343-265.8" fill="#9fe0f1"/>
      <path id="path78" d="M83.382-248.369l-8.955-4.9,3.356-9.8.285.156h0a23.812,23.812,0,0,1-3.527-4.385h0l.091.313L64.343-265.8l-2.867-9.8,9.3-4.556.091.312h0c0-.087,0-.175,0-.261a23.888,23.888,0,0,1,.608-5.332h0l-.156.285L63.21-291.6l4.9-8.953,9.8,3.355-.156.285h0a23.937,23.937,0,0,1,4.385-3.527h0l-.313.091-1.178-10.289,9.8-2.867L95-304.2l-.312.091h.2a23.922,23.922,0,0,1,3.2.221l-.42,3.147a20.738,20.738,0,0,0-2.736-.181,20.849,20.849,0,0,0-18.311,10.847,20.852,20.852,0,0,0,8.283,28.3,20.791,20.791,0,0,0,7.254,2.381l-.42,3.148c-.694-.092-1.388-.207-2.078-.361l-.117-.027h0l.285.157-6.443,8.109" fill="#f0a03b"/>
      <path id="path80" d="M92.154-259.4a20.791,20.791,0,0,1-7.254-2.381,20.852,20.852,0,0,1-8.283-28.3,20.849,20.849,0,0,1,18.311-10.847,20.727,20.727,0,0,1,2.736.181L92.154-259.4" fill="#ecd392"/>
      <path id="path82" d="M102.427-293.809a15.662,15.662,0,0,1,6.222,21.259,15.662,15.662,0,0,1-21.258,6.221,15.661,15.661,0,0,1-6.222-21.257,15.662,15.662,0,0,1,21.258-6.223" fill="#c55e1e"/>
      <path id="path84" d="M100.14-289.629a10.9,10.9,0,0,1,4.329,14.791,10.9,10.9,0,0,1-14.79,4.328A10.9,10.9,0,0,1,85.351-285.3a10.9,10.9,0,0,1,14.79-4.329" fill="#fff"/>
      <path id="path86" d="M482.083-290.922l15.789,3.8L496.8-270.679l-.5-.121a37.976,37.976,0,0,1,7.24,5.268l-.271-.443,15.313-6.092,8.48,13.852-12.389,10.867-.271-.441a38.05,38.05,0,0,1,1.4,8.843l.121-.5,15.135,6.521-3.8,15.791L510.8-218.215l.121-.5a38.016,38.016,0,0,1-5.265,7.241l.441-.271,6.092,15.312-13.852,8.479-10.867-12.389.441-.269a37.959,37.959,0,0,1-8.843,1.4l.5.121-6.521,15.135-15.789-3.8,1.076-16.445.5.121a38.029,38.029,0,0,1-7.24-5.267l.271.441-15.313,6.092-8.48-13.852,12.389-10.867.271.443a38.053,38.053,0,0,1-1.4-8.844l-.121.5-15.135-6.521,3.8-15.789,16.444,1.076-.12.5a38.05,38.05,0,0,1,5.265-7.24l-.441.269-6.092-15.312,13.852-8.479,10.867,12.389-.441.271a37.957,37.957,0,0,1,8.843-1.4l-.5-.121,6.521-15.135" fill="#264e84"/>
      <path id="path88" d="M485.329-269.7a33.175,33.175,0,0,0-40.017,24.5,33.178,33.178,0,0,0,24.5,40.016,33.177,33.177,0,0,0,40.017-24.5,33.176,33.176,0,0,0-24.5-40.015" fill="#5d82c0"/>
      <path id="path90" d="M473.055-183.964l-15.789-3.8,1.076-16.445.5.121h0c-1.037-.583-2.032-1.221-3-1.891l2.871-4.157a33.079,33.079,0,0,0,11.093,4.947,33.234,33.234,0,0,0,7.787.928,32.885,32.885,0,0,0,5.241-.42l-.815,5.229q-1.462.172-2.948.229h0l.5.121-6.521,15.135m39.056-12.421.028-.188.055.137-.083.051m15.139-20.753-11.92-.781,3.06-20.464,12.659,5.455-3.8,15.791m-6.756-35.321,1.98-13.241,4.583,7.485-6.563,5.756" fill="#46729e"/>
      <path id="path92" d="M477.595-204.258a33.233,33.233,0,0,1-7.787-.928,33.08,33.08,0,0,1-11.093-4.947l4.692-6.8a24.848,24.848,0,0,0,8.333,3.716,25.006,25.006,0,0,0,5.848.7,24.778,24.778,0,0,0,6.608-.9l-1.36,8.736a32.883,32.883,0,0,1-5.241.42" fill="#7e9bcd"/>
      <path id="path94" d="M483.4-261.671a24.921,24.921,0,0,0-30.059,18.4,24.922,24.922,0,0,0,18.4,30.059,24.923,24.923,0,0,0,30.059-18.4,24.921,24.921,0,0,0-18.4-30.057" fill="#1c3c63"/>
      <path id="path96" d="M481.624-254.3a17.338,17.338,0,0,0-20.912,12.8,17.339,17.339,0,0,0,12.8,20.913,17.339,17.339,0,0,0,20.912-12.8,17.34,17.34,0,0,0-12.8-20.913" fill="#fff"/>
      <path id="path98" d="M582.16-192.581l1.653,10.072-9.787,3.389-.053-.32a23.8,23.8,0,0,1-1.283,5.477l.191-.264,7.264,7.383-5.953,8.292-9.317-4.524.191-.265a23.945,23.945,0,0,1-4.781,2.968l.321-.052-.084,10.356-10.072,1.653-3.391-9.787.321-.052a23.987,23.987,0,0,1-5.479-1.284l.264.189-7.381,7.265-8.291-5.953,4.523-9.317.264.189a23.9,23.9,0,0,1-2.967-4.78l.053.32-10.357-.083-1.653-10.072,9.787-3.391.053.321a23.881,23.881,0,0,1,1.283-5.479l-.189.264-7.265-7.381,5.953-8.292,9.317,4.524-.189.264a23.891,23.891,0,0,1,4.78-2.967l-.32.053.083-10.357,10.072-1.653,3.389,9.788-.32.052a23.965,23.965,0,0,1,5.479,1.281l-.265-.189,7.383-7.264,8.292,5.953-4.524,9.317-.264-.191a24,24,0,0,1,2.967,4.781l-.052-.32,10.356.083" fill="#2e826f"/>
      <path id="path100" d="M570.661-185.522a20.852,20.852,0,0,0-23.953-17.2,20.85,20.85,0,0,0-17.2,23.953,20.85,20.85,0,0,0,23.953,17.2,20.851,20.851,0,0,0,17.2-23.953" fill="#63c1b4"/>
      <path id="path102" d="M574.192-158.552h0l5.953-8.292-5.953,8.292m-1.485-15.456a.047.047,0,0,0,.005-.012.045.045,0,0,1-.005.012" fill="#9fe0f1"/>
      <path id="path104" d="M526.2-184.849c0-.015,0-.029.005-.044,0,.015,0,.029-.005.044m.005-.047a.2.2,0,0,0,0-.028.2.2,0,0,1,0,.028" fill="#79cfde"/>
      <path id="path106" d="M550.449-148.416l-3.391-9.787.321-.052h0a23.987,23.987,0,0,1-5.479-1.284h0l.264.189-7.381,7.265-8.291-5.953,4.523-9.317.264.189h0a23.894,23.894,0,0,1-2.967-4.78h0l.053.32-10.357-.083-1.653-10.072,9.787-3.391.053.321h0c0-.015,0-.029.005-.044v0a.2.2,0,0,0,0-.028c.084-.717.208-1.424.353-2.124l3.109.648a20.8,20.8,0,0,0-.157,7.633,20.856,20.856,0,0,0,20.549,17.476,20.993,20.993,0,0,0,3.4-.279,20.857,20.857,0,0,0,17.04-16.32l3.109.648a23.947,23.947,0,0,1-.9,3.221.045.045,0,0,1-.005.012l-.016.045h0l.191-.264,7.264,7.383-5.953,8.292-9.317-4.524.191-.265h0a23.946,23.946,0,0,1-4.781,2.968h0l.321-.052-.084,10.356-10.072,1.653" fill="#4a9d8a"/>
      <path id="path108" d="M550.059-161.29a20.856,20.856,0,0,1-20.549-17.476,20.8,20.8,0,0,1,.157-7.633l40.836,8.511a20.857,20.857,0,0,1-17.04,16.32,20.991,20.991,0,0,1-3.4.279" fill="#81d0c1"/>
      <path id="path110" d="M565.54-184.681A15.662,15.662,0,0,0,547.548-197.6a15.662,15.662,0,0,0-12.919,17.992,15.661,15.661,0,0,0,17.992,12.919,15.661,15.661,0,0,0,12.919-17.992" fill="#226150"/>
      <path id="path112" d="M560.837-183.91A10.9,10.9,0,0,0,548.32-192.9a10.9,10.9,0,0,0-8.988,12.517,10.9,10.9,0,0,0,12.517,8.988,10.9,10.9,0,0,0,8.988-12.519" fill="#fff"/>
      <path id="path116" d="M557.332-130.074c0,5.932-95.512,10.741-213.333,10.741s-213.333-4.809-213.333-10.741S226.178-140.816,344-140.816s213.333,4.808,213.333,10.741" fill="#c5769e"/>
      <path id="path118" d="M145.136-472.867,173.1-152.5a20.648,20.648,0,0,0,21.581,18.827L411.552-144.3a20.648,20.648,0,0,0,19.6-21.825l-18.809-322.81a20.647,20.647,0,0,0-21.805-19.412L164.514-495.277a20.65,20.65,0,0,0-19.379,22.411" fill="#f266ae"/>
      <path id="path120" d="M149.15-469.952,177.12-149.585A20.649,20.649,0,0,0,198.7-130.756l216.866-10.626a20.648,20.648,0,0,0,19.6-21.824l-18.808-322.81a20.651,20.651,0,0,0-21.807-19.413L168.529-492.361a20.648,20.648,0,0,0-19.379,22.409" fill="#ee208a"/>
      <path id="path122" d="M194.621-161.617l-23.8-314.6,31.543,314.3-7.74.3" fill="#cb4e8e"/>
      <path id="path124" d="M170.818-476.221l32.12,320.054,210.5-10.9L392.218-481.957l-221.4,5.736" fill="#fff"/>
      <path id="path126" d="M208.721-500.52l3.313,32.329,134.142-7.457-1.731-36.741c-.224-4.736-3.261-8.335-6.789-8.044L214.675-510.28c-3.721.307-6.463,4.8-5.955,9.76" fill="#211d1d"/>
      <path id="path128" d="M204.724-494.453l0-.013,4.595-.265v.012l-4.592.267m140.185-8.105v-.013l3.515-.2v.012l-3.515.2" fill="#5188ac"/>
      <path id="path130" d="M209.519-477.224l-4.8-17.229,4.592-.267,1.789,17.455-1.585.041m136.417-3.535-1.028-21.8,3.515-.2,1.033,21.913-3.52.091" fill="#90bbc8"/>
      <path id="path132" d="M212.034-468.191l-2.515-9.033,1.585-.041.929,9.075,134.142-7.457-.24-5.111,3.52-.091.245,5.2-137.668,7.457" fill="#d4d3d1"/>
      <path id="path134" d="M212.034-468.191l-.929-9.075-1.789-17.455v-.012l135.594-7.84v.013l1.028,21.8.24,5.111-134.142,7.457" fill="#211d1d"/>
      <path id="path136" d="M283.41-522.689c-4.171,3.211-10.176,2.176-14.292-.9a12.992,12.992,0,0,1-2.864-2.917c-8.061-11.529,12.659-23.367,20.049-12.124,3.237,4.927,1.7,12.4-2.893,15.94Zm14.141-26.017c-7.836-7.943-20.977-8.675-31.136-5.631-10.685,3.2-16.912,13.293-17.387,23.417-.412,8.8,3.525,17.627,12.663,21.964,12.737,6.045,30.892,1.164,38.141-11.144,5.159-8.757,5.133-21.091-2.281-28.607" fill="#211d1d"/>
      <path id="path138" d="M212.246-500.52l3.313,32.328L349.7-475.648l-1.732-36.741c-.224-4.736-3.261-8.335-6.789-8.044L218.2-510.28c-3.721.307-6.463,4.8-5.953,9.76" fill="#423f41"/>
      <path id="path140" d="M288.142-522.689c-4.171,3.211-10.176,2.176-14.292-.9a12.958,12.958,0,0,1-2.863-2.917c-8.063-11.529,12.657-23.367,20.047-12.124,3.239,4.927,1.7,12.4-2.892,15.94Zm14.141-26.017c-7.836-7.943-20.977-8.675-31.137-5.631-10.684,3.2-16.911,13.293-17.385,23.417-.412,8.8,3.524,17.627,12.661,21.964,12.74,6.045,30.893,1.164,38.143-11.144,5.159-8.757,5.132-21.091-2.281-28.607" fill="#423f41"/>
      <path id="path142" d="M214.147-481.957l134.973-6.009.581,12.319-134.142,7.456-1.412-13.765" fill="#58595b"/>
      <path id="path144" d="M209.534-400.76l.1,1.331,24.685-1.8.157-.005a2.108,2.108,0,0,1,2.1,1.948l1.488,19.552.007.164a2.109,2.109,0,0,1-1.937,2.1l-24.684,2.02-.175.007a2.109,2.109,0,0,1-2.1-1.949l-1.489-19.777-.005-.161a2.107,2.107,0,0,1,1.955-2.1l-.1-1.331-.1-1.329a4.775,4.775,0,0,0-4.428,4.759c0,.12,0,.241.013.361l1.489,19.777a4.774,4.774,0,0,0,4.757,4.416c.129,0,.261-.005.392-.016l24.684-2.02a4.776,4.776,0,0,0,4.387-4.755c0-.121-.005-.243-.015-.365l-1.488-19.552a4.774,4.774,0,0,0-4.756-4.413l-.351.013-24.685,1.795.1,1.329" fill="#a5a5a4"/>
      <path id="path146" d="M256.3-397.524l95.874-6.931c4.253-.308,4.288-6.977,0-6.667L256.3-404.191c-4.255.308-4.288,6.977,0,6.667" fill="#a5a5a4"/>
      <path id="path148" d="M259.633-378.811l95.874-6.932c4.255-.308,4.288-6.977,0-6.667l-95.874,6.932c-4.255.307-4.288,6.976,0,6.667" fill="#a5a5a4"/>
      <path id="path150" d="M203.593-387.668,217.071-377.2c1.633,1.268,4.083,1.388,5.235-.675q10.182-18.212,20.363-36.423c2.1-3.749-3.66-7.115-5.756-3.365q-10.182,18.212-20.363,36.423l5.235-.675-13.479-10.468c-3.348-2.6-8.1,2.085-4.713,4.715" fill="#ee208a"/>
      <path id="path152" d="M217.074-335.486l.124,1.327,23.436-2.208.2-.009a2.111,2.111,0,0,1,2.079,1.772l3.123,19.32.028.343a2.109,2.109,0,0,1-1.937,2.1l-24.492,2-.176.007a2.11,2.11,0,0,1-2.093-1.881L215.3-331.834l-.012-.231a2.108,2.108,0,0,1,1.909-2.095l-.124-1.327-.125-1.328a4.774,4.774,0,0,0-4.327,4.749,4.839,4.839,0,0,0,.028.517l2.065,19.117a4.776,4.776,0,0,0,4.744,4.261c.129,0,.261-.005.393-.016l24.493-2a4.776,4.776,0,0,0,4.385-4.753,4.853,4.853,0,0,0-.061-.769l-3.124-19.319a4.776,4.776,0,0,0-4.711-4.013c-.149,0-.3.007-.452.021l-23.435,2.208.125,1.328" fill="#a5a5a4"/>
      <path id="path154" d="M264.6-332.926l95.876-6.932c4.253-.307,4.288-6.976,0-6.667L264.6-339.592c-4.253.308-4.288,6.977,0,6.667" fill="#a5a5a4"/>
      <path id="path156" d="M267.934-314.214l95.874-6.931c4.255-.308,4.288-6.977,0-6.667l-95.874,6.931c-4.255.308-4.288,6.976,0,6.667" fill="#a5a5a4"/>
      <path id="path158" d="M211.894-323.071,225.373-312.6c1.633,1.268,4.083,1.388,5.236-.676L250.97-349.7c2.1-3.749-3.661-7.115-5.756-3.365q-10.182,18.212-20.363,36.423l5.235-.675-13.479-10.468c-3.348-2.6-8.1,2.085-4.713,4.713" fill="#ee208a"/>
      <path id="path160" d="M225.215-264.011l.1,1.331,24.715-1.8.156-.005a2.107,2.107,0,0,1,2.085,1.817l2.7,19.451.021.295a2.111,2.111,0,0,1-1.937,2.1l-24.943,2.041-.173.007a2.109,2.109,0,0,1-2.089-1.845l-2.477-19.695-.016-.268a2.108,2.108,0,0,1,1.955-2.1l-.1-1.331-.1-1.329a4.774,4.774,0,0,0-4.428,4.757,4.823,4.823,0,0,0,.037.6l2.476,19.693a4.778,4.778,0,0,0,4.736,4.18c.129,0,.26-.005.391-.016l24.943-2.04a4.779,4.779,0,0,0,4.387-4.756,4.824,4.824,0,0,0-.047-.661l-2.7-19.451a4.774,4.774,0,0,0-4.727-4.117l-.349.012-24.715,1.8.1,1.329" fill="#a5a5a4"/>
      <path id="path162" d="M271.8-260.762q47.938-3.466,95.874-6.932c4.255-.307,4.288-6.976,0-6.667q-47.936,3.468-95.874,6.932c-4.253.308-4.288,6.977,0,6.667" fill="#a5a5a4"/>
      <path id="path164" d="M275.138-242.049q47.936-3.468,95.874-6.932c4.255-.308,4.288-6.977,0-6.667q-47.938,3.466-95.874,6.932c-4.255.307-4.288,6.976,0,6.667" fill="#a5a5a4"/>
      <path id="path166" d="M219.1-250.906l13.48,10.468c1.633,1.268,4.081,1.388,5.235-.675q10.182-18.21,20.361-36.421c2.1-3.751-3.66-7.115-5.756-3.367q-10.18,18.212-20.361,36.423l5.235-.675q-6.74-5.232-13.479-10.468c-3.348-2.6-8.1,2.085-4.715,4.715" fill="#ee208a"/>
      <g id="g168">
        <text id="TO_DO:" data-name="TO DO:" transform="translate(243.626 -276.206)" fill="#58595b" font-size="24" font-family="SegoeUI, Segoe UI"><tspan x="0" y="0">TO DO:</tspan></text>
      </g>
      <path id="path174" d="M418.03-141.65a20.627,20.627,0,0,0,2.6-.616l-.024.027a20.542,20.542,0,0,1-2.58.589" fill="#4d9cb1"/>
      <path id="path176" d="M358.759-138.59l0-.009,7.091-.347s0,.005,0,.008l-7.1.348" fill="#3e818f"/>
      <path id="path178" d="M358.763-138.6a5.856,5.856,0,0,1,.937-1.627l0,0a4.938,4.938,0,0,1,.587-.573l.179-.139a4.538,4.538,0,0,1,.5-.332l.156-.091a4.815,4.815,0,0,1,.679-.292l.163-.047c.189-.059.383-.108.579-.149l.213-.04c.228-.039.459-.069.692-.087l.057-.007c.259-.02.519-.027.783-.028h.223c.207,0,.413.008.623.017l.188.008c.228.012.455.025.683.041a6.542,6.542,0,0,0-.264,1.835,6.4,6.4,0,0,0,.109,1.164l-7.091.347m58.324-2.92a4.362,4.362,0,0,0,.368-.444,10.9,10.9,0,0,0,1.429-4.108c.091-.479.172-.955.259-1.411.421-2.22.993-4.407,1.6-6.58.087-.307.175-.617.24-.929a4.479,4.479,0,0,0,.105-.951l-.019-.116c-.351.392-.609.667-.761.807l-.023.019-.127.087h0a64.267,64.267,0,0,1-5.772-5.339q-.8-.826-1.585-1.679c.172-1.628.295-3.259.384-4.889l.252-.013-.148-2.195c.061-1.575.1-3.149.128-4.725,4.476,5.349,9.06,10.779,14.216,14.936h.007a5.489,5.489,0,0,0,.919-.929c0,.044,0,.087,0,.132a6.61,6.61,0,0,1-.332,1.837l-.012.043c-.611,2.173-1.184,4.361-1.605,6.58-.027.143-.053.288-.08.433a13.271,13.271,0,0,1-1.608,5.088,8.091,8.091,0,0,1-2.593,2.2l-.3.187a6.1,6.1,0,0,0-1.4,1.209,20.627,20.627,0,0,1-2.6.616q-.466.076-.943.131m-33.623-4.6c.891-6.4,1.752-12.965,2.42-19.524l7.1-.367c-.736,6.581-1.636,13.136-2.535,19.5a0,0,0,0,1,0,0l-6.983.393m33.992-224.011c-5.929-.657-11.863-1.257-17.813-1.647l-.5-7.373a9.831,9.831,0,0,0,3.321,1.509,23.858,23.858,0,0,0,5.868.74,24.217,24.217,0,0,0,7.881-1.34q-.652.464-1.323.893a49.679,49.679,0,0,0-1.145,4.979,12.35,12.35,0,0,1,3.707,2.239" fill="#90bbc8"/>
      <path id="path180" d="M385.884-165.64c.627-6.147,1.084-12.291,1.237-18.293q0-3.444.039-6.883c-3.011-3.135-6.072-6.22-9.268-9.169q-1.3-1.2-2.633-2.353c-2.664-2.309-5.417-4.5-8.225-6.647-.427-.328-.865-.641-1.309-.944-2.665-1.816-5.575-3.264-8.093-5.324q-.63-.514-1.225-1.085c-4.241-4.1-5.224-9.205-4.689-14.432a42.7,42.7,0,0,1,2.224-9.345c.885-2.584,1.689-5.192,2.465-7.809l6.432-.465q-.684,2.194-1.424,4.372h0a37.555,37.555,0,0,0-2.357,11.855,15.834,15.834,0,0,0,4.824,11.921c3.163,3.055,7.205,4.732,10.628,7.353,3.744,2.868,7.388,5.8,10.857,9,3.191,2.943,6.259,6.011,9.264,9.14q-.034,3.454-.035,6.911c-.183,7.155-.8,14.509-1.615,21.831l-7.1.367m27.3-1.413c.041-.736.075-1.472.1-2.208l.148,2.195-.252.013m-17.621-59.68q-3.456-2.638-7.072-5.053c.005-.107.011-.215.015-.323q.17-3.652.349-7.3c.756-2.02,1.523-3.823,1.709-4.336,1.879-5.151,4.235-10.173,6.541-15.217q-.578,11.478-1.127,22.955-.216,4.638-.416,9.279m-37.173-28c1.236-4.228,2.513-8.443,4.049-12.58l5.233-.379a3.593,3.593,0,0,0,1.076-.239c-1.425,4.2-2.647,8.469-3.884,12.729l-6.475.468m12.137-18.1a2.719,2.719,0,0,0-2.569-1.539c-.093,0-.188,0-.285.009l-7.849.568a5.661,5.661,0,0,1-.917-1.832,7.258,7.258,0,0,1-.241-2.927c-1.129-1.908-2.664-4.673-4.243-7.579q-.462-.846-.924-1.7c-.615-1.139-1.225-2.275-1.808-3.364-.873-1.635-1.688-3.164-2.367-4.443l-1.3-2.441c-.233-.437-.423-.789-.528-.98-.369-.669-.751-1.355-1.136-2.051q-.32-.576-.643-1.163-.748-1.362-1.5-2.771-.242-.46-.481-.924a64.228,64.228,0,0,1-3.523-7.88c-.168-.472-.328-.947-.477-1.42a31.022,31.022,0,0,1-1-4.064l8.244-.6c1.728,5.948,5.169,11.859,7.985,16.965.956,1.733,7.835,14.885,11.167,20.511a7.256,7.256,0,0,0,.243,2.927A5.494,5.494,0,0,0,369.452-276a12.832,12.832,0,0,0,2.04.764c-.043.111-.087.22-.131.329h-.135l0,.341c-.1.248-.2.495-.3.743-.031.076-.061.152-.091.228-.1.255-.2.512-.3.768m7.443-24.857-5.236-10.539c.779-8.308,1.385-16.617,1.569-24.975,2.519-2.413,5.041-4.824,7.524-7.272q-.008,1.136-.028,2.271c-.2,11.173-1.167,22.255-2.311,33.363-.049.48-.717,3.549-1.519,7.152M339.431-326.05a13.516,13.516,0,0,1,1.108-1.884,22.872,22.872,0,0,1,1.58-2c2.791-3.188,6.323-5.972,9.26-8.831l.481-.471,3.544-.256a68.35,68.35,0,0,0-5.812,5.655c-1.927,2.2-3.415,4.493-3.621,7.315l-6.54.472M362.353-346.1a2.916,2.916,0,0,0-1.593-.432c-.093,0-.188,0-.285.009l-1.413.1c2.077-2.147,4.112-4.333,6.077-6.584.439-.5.865-1.017,1.288-1.544.663-.828,1.311-1.685,1.956-2.548l1.451-1.94a45.339,45.339,0,0,1,5.611-6.491l.033-.035a7.758,7.758,0,0,1,2.455-1.531,6.523,6.523,0,0,1,3.779-1.173c-3.327,3.421-5.979,7.787-9.1,11.359-3.269,3.743-6.731,7.309-10.26,10.807m37.291-25.672q-1.6-.106-3.209-.189c.279-.111.565-.217.857-.319.039-.229.083-.456.117-.685.008-.051.019-.155.035-.293a24.53,24.53,0,0,1-2.449-.475,9.578,9.578,0,0,1-3.843-1.957c-.132-.109-.267-.216-.392-.332q-.34-.314-.648-.657c-.12-.135-.233-.276-.347-.416-.188-.235-.38-.467-.549-.717-.112-.165-.209-.344-.313-.516a13.478,13.478,0,0,1-.689-1.279c-.117-.248-.235-.5-.34-.753-.089-.217-.172-.439-.253-.663q-.17-.462-.317-.941c-.057-.184-.117-.368-.169-.555q-.218-.764-.393-1.553l0-.009a59.569,59.569,0,0,1-1.42-11.713q-.042-2.362.139-4.716c.015-.184.04-.367.057-.549a15.317,15.317,0,0,1-.721-3.453,39.949,39.949,0,0,1,.976-14.876l.028-.076a10.83,10.83,0,0,1-2.543-3.48,8.943,8.943,0,0,1-.463-1.3,8.366,8.366,0,0,1-.285-3.163,6.309,6.309,0,0,1,1.716-3.789l.088-.079a15.188,15.188,0,0,1,7.129-3.545,6.581,6.581,0,0,0-1.515,4.348,8.812,8.812,0,0,0,.8,3.624c.057.125.117.248.177.369a10.839,10.839,0,0,0,2.352,3.141c-.005.015-.009.031-.013.045a39.92,39.92,0,0,0-.977,14.876,15.364,15.364,0,0,0,.708,3.479q-.192,2.172-.191,4.353a59.044,59.044,0,0,0,1.428,12.6h0l.008.036,0,.015c0,.009,0,.02.005.029l0,.016c0,.008,0,.017.005.025l0,.013.008.037h0c.791,3.513,2.168,6.728,4.9,8.668l.5,7.373" fill="#d4d3d1"/>
      <path id="path182" d="M351.86-339.235q1.532-1.492,3.053-3,2.092-2.074,4.147-4.189l1.413-.1c.1-.007.192-.009.285-.009a2.916,2.916,0,0,1,1.593.432q-1.742,1.726-3.5,3.435c-1.091,1.06-2.263,2.112-3.448,3.176l-3.544.256" fill="#888a89"/>
      <path id="path184" d="M338.746-319.334q-.138-.814-.221-1.625a9.561,9.561,0,0,1-.045-1.315,9.43,9.43,0,0,1,.952-3.776l6.54-.472c-.016.219-.024.44-.024.667a9.378,9.378,0,0,0,.051.993,27.708,27.708,0,0,0,.992,4.932l-8.244.6" fill="#888a89"/>
      <path id="path186" d="M362.443-267.315q.488-1.31,1.009-2.608c.189-.472.373-.945.56-1.417a13.144,13.144,0,0,1-2.033-.76,5.885,5.885,0,0,1-2.152-1.692l7.849-.568c.1-.007.192-.009.285-.009a2.719,2.719,0,0,1,2.569,1.539c-.633,1.621-1.221,3.255-1.779,4.9a3.6,3.6,0,0,1-1.076.239l-5.233.379" fill="#888a89"/>
      <path id="path188" d="M356.406-247.925c.673-2.267,1.324-4.541,1.988-6.811l6.475-.468c-.661,2.276-1.327,4.551-2.031,6.813l-6.432.465" fill="#888a89"/>
      <path id="path190" d="M349.592-333.837c-2.291,2.619-3.961,5.364-3.595,8.975.767,7.547,5.383,15.377,8.977,21.9,1.012,1.833,8.645,16.437,11.705,21.4l9.376-6.32a7.861,7.861,0,0,0,3.221-3.264c.808-2.027-.181-4.281-1.151-6.235q-3.236-6.514-6.471-13.025c-1.095-2.2-2.119-4.4-3-6.7-.744-1.941-2.077-3.824-2.073-6,0-2.148,1.22-3.812,2.689-5.244,6.384-6.223,12.963-12.255,19.059-18.765,5.14-5.489,11.824-13.257,5.752-20.7a11.554,11.554,0,0,0-3.388-2.665,6.23,6.23,0,0,0-7.745,1.013c-3.932,3.551-6.843,8.553-10.339,12.559-4.344,4.973-9.029,9.637-13.76,14.241-2.937,2.859-6.468,5.641-9.26,8.831" fill="#3742fa"/>
      <path id="path192" d="M366.142-282.454c-3.332-5.625-10.211-18.777-11.167-20.511-2.816-5.107-6.257-11.017-7.985-16.965a27.705,27.705,0,0,1-.992-4.932,9.384,9.384,0,0,1-.051-.993c0-3.132,1.569-5.608,3.645-7.981,2.792-3.189,6.324-5.972,9.26-8.831,4.731-4.6,9.416-9.268,13.76-14.241,3.5-4.005,6.407-9.008,10.339-12.559a7.823,7.823,0,0,1,2.429-1.539,5.506,5.506,0,0,0-1.531,1.921A18.964,18.964,0,0,0,382.188-364c-2.095,2.663-4.035,5.523-6.2,8-4.345,4.973-9.029,9.636-13.761,14.241-2.936,2.859-6.468,5.641-9.257,8.831-2.293,2.619-3.964,5.363-3.6,8.973.767,7.548,5.383,15.379,8.979,21.9.765,1.387,5.313,10.069,8.811,16.371-.06.117-.119.237-.177.359a8.94,8.94,0,0,0-.844,2.869" fill="#2a36ff"/>
      <path id="path194" d="M366.866-136.64c1.043,1.352,2.891,1.489,4.523,1.521l33.737.648a2,2,0,0,0,1.247-.251,2.27,2.27,0,0,0,.691-1.347,35.587,35.587,0,0,0,1.011-9.4c-1.821-1.809-4.589-1.779-7.064-1.637l-24.393,1.379a21.034,21.034,0,0,1-2.676-.088c-2.468-.181-5.023-.363-6.767,1.687a6.173,6.173,0,0,0-.308,7.489" fill="#60331d"/>
      <path id="path196" d="M445.978-160.754c.609-1.823,1.341-3.961.952-5.9-.463-2.311-2.82-4.163-4.521-5.621a35.288,35.288,0,0,0-4.529-3.2,3.5,3.5,0,0,0-1.979-.709,3.279,3.279,0,0,0-1.768.891c-2.664,2.2-5.107,4.413-6.608,7.755a10.088,10.088,0,0,0-.752,2.265,3.854,3.854,0,0,0,.548,3.029c.573.753,1.235,1.291,1.245,2.4a6.807,6.807,0,0,1-.344,1.88c-.611,2.173-1.184,4.361-1.605,6.58-.347,1.832-.615,3.932-1.687,5.521a8.875,8.875,0,0,1-2.9,2.389c-2.583,1.568-4.981,6.633-1.3,8.381a7.032,7.032,0,0,0,3.383.484c1.371-.068,2.745-.052,4.12-.036,1.628.019,3.256.039,4.877-.083,2.315-.173,3.576-1.951,4.515-3.9,3.412-7.091,5.864-14.675,8.355-22.123" fill="#60331d"/>
      <path id="path198" d="M377.531-145.78h0l5.937-.336h0l-5.933.335" fill="#90bbc8"/>
      <path id="path200" d="M383.464-146.114h0l6.983-.393h0l-6.984.395" fill="#7498a5"/>
      <path id="path202" d="M379.1-145.712c-.509,0-1.036-.031-1.569-.068l5.933-.335,6.984-.395.092.027-.02.143-10.821.612c-.2.011-.4.016-.6.016" fill="#522d1e"/>
      <path id="path204" d="M405.143-134.469h-.017l-33.737-.648c-1.632-.031-3.48-.169-4.523-1.521a5.446,5.446,0,0,1-1.011-2.3h0a5.446,5.446,0,0,0,1.011,2.3c1.043,1.352,2.891,1.489,4.523,1.521l33.737.648h.017" fill="#3e818f"/>
      <path id="path206" d="M367.174-144.129a5.642,5.642,0,0,1,4.652-1.791c.588,0,1.185.037,1.781.08h0c-.593-.043-1.192-.079-1.779-.079a5.645,5.645,0,0,0-4.653,1.789" fill="#90bbc8"/>
      <path id="path208" d="M405.24-134.469h-.115l-33.737-.648c-1.632-.032-3.48-.169-4.523-1.521a5.446,5.446,0,0,1-1.011-2.3s0-.005,0-.008a6.4,6.4,0,0,1-.109-1.164,6.248,6.248,0,0,1,1.429-4.019h0a5.645,5.645,0,0,1,4.653-1.789c.587,0,1.185.036,1.779.079a5,5,0,0,0-3.349,1.711,6.173,6.173,0,0,0-.308,7.489c1.043,1.352,2.891,1.491,4.523,1.521l31.359.6a3.347,3.347,0,0,1-.589.047" fill="#522d1e"/>
      <path id="path210" d="M423.4-134.592a6.164,6.164,0,0,1-2.671-.5,3.083,3.083,0,0,1-1.885-2.949,3.083,3.083,0,0,0,1.885,2.949,6.164,6.164,0,0,0,2.671.5c.239,0,.476-.007.712-.019.439-.021.879-.035,1.317-.043l.1.012c-.471.005-.941.007-1.413.031-.236.012-.473.019-.712.019" fill="#3e818f"/>
      <path id="path212" d="M422.335-143.662a8.091,8.091,0,0,0,2.593-2.2,13.272,13.272,0,0,0,1.608-5.088,13.292,13.292,0,0,1-1.607,5.088,8.111,8.111,0,0,1-2.595,2.2m5.9-14.347a6.613,6.613,0,0,0,.332-1.837c0-.045,0-.088,0-.132h0q0,.064,0,.132a6.613,6.613,0,0,1-.332,1.837" fill="#7498a5"/>
      <path id="path214" d="M423.4-134.592a6.164,6.164,0,0,1-2.671-.5,3.083,3.083,0,0,1-1.885-2.949,7.161,7.161,0,0,1,3.188-5.432l.3-.187a8.11,8.11,0,0,0,2.595-2.2,13.293,13.293,0,0,0,1.607-5.088c.027-.145.053-.291.08-.433.421-2.219.995-4.407,1.605-6.58l.012-.043a6.61,6.61,0,0,0,.332-1.837q0-.068,0-.132c.489-.549,1.143-1.308,1.895-2.195a3.619,3.619,0,0,1,1.192,2.327,6.81,6.81,0,0,1-.344,1.88c-.611,2.173-1.184,4.361-1.605,6.58-.347,1.832-.615,3.932-1.687,5.521a8.862,8.862,0,0,1-2.9,2.389c-2.583,1.568-4.981,6.633-1.3,8.381a5.15,5.15,0,0,0,1.617.441c-.439.008-.879.021-1.317.043-.236.012-.473.019-.712.019" fill="#522d1e"/>
      <path id="path216" d="M428.648-134.641h0" fill="#3e818f"/>
      <path id="path218" d="M429.75-134.636c-.367,0-.733,0-1.1-.005h-.012c.485-.008.969-.011,1.455-.011.333,0,.665,0,1,.005q-.67.01-1.34.011" fill="#522d1e"/>
      <path id="path220" d="M397.918-401.051a2.453,2.453,0,0,0,1.772-1.756,29.444,29.444,0,0,0,1.444-6.789c.512-4.556,1.911-11.273-.808-15.281-2.153-3.176-6.112-1.745-7.084,1.583a39.921,39.921,0,0,0-.977,14.876,11.576,11.576,0,0,0,1.485,5.084c.915,1.424,2.719,2.587,4.168,2.284" fill="#60331d"/>
      <path id="path222" d="M369.452-276a13.084,13.084,0,0,0,2.068.772c3.1.912,5.393.037,7.895-2.015a12.615,12.615,0,0,0,4.372-6.553,8.72,8.72,0,0,0-1.528-7.571,6.7,6.7,0,0,0-7.2-2.157,11.676,11.676,0,0,0-3.023,1.859,16,16,0,0,0-5.048,6.347,8.081,8.081,0,0,0-.6,5.8A5.494,5.494,0,0,0,369.452-276" fill="#dc905f"/>
      <path id="path224" d="M420.7-363.1a36.841,36.841,0,0,1-10.072.724c-1.8-.079-7.356.453-8.083-1.611a4.247,4.247,0,0,1-.143-1.672c.115-1.825.912-3.405,1.264-5.16.4-2.013.917-4.015,1.219-6.048.064-.435.424-4.711.889-4.776q8.75-1.236,17.5-2.468A49.382,49.382,0,0,0,420.7-363.1" fill="#dc905f"/>
      <path id="path226" d="M457.891-361.132c.427.107.853.215,1.28.32q16.772,4.168,33.849,6.944c5.1.828,10.175,1.5,15.309,1.995,3.937.417,8.373,1.032,10.987,4.365a8.806,8.806,0,0,1,.969,1.545,7.694,7.694,0,0,1,.313.723c.983,2.636.181,6-2.231,7.451a9.9,9.9,0,0,1-4.671,1.04,136.723,136.723,0,0,1-19.1-.383c-19.925-1.795-39.445-6.889-59-10.876-2.572-.524-5.363-1.177-6.993-3.235-2.535-3.2-1.08-7.475.163-10.884a16.391,16.391,0,0,1,1.413-3.164c2.663-4.231,8.708-1.091,12.311-.036q7.66,2.244,15.4,4.195" fill="#3742fa"/>
      <path id="path228" d="M503.375-336.624q-4.286-.11-8.56-.488l-.217-.02c-19.205-1.729-38.033-6.525-56.881-10.44q.2-1.178.38-2.359c18.721,3.9,37.425,8.643,56.5,10.361q4.568.412,9.156.517l-.379,2.428" fill="#2a36ff"/>
      <path id="path230" d="M377.354-291.554c-1.869,6.02-4.079,11.908-6.428,17.727-3.917,9.709-6.132,19.937-9.512,29.809-2.765,8.079-4.32,17.22,2.467,23.776,3.163,3.055,7.205,4.732,10.628,7.353,3.744,2.868,7.388,5.8,10.857,9,7.28,6.715,13.917,14.081,20.651,21.332,6.985,7.524,13.613,17.048,21.62,23.505.256.207,12.8-15.195,12.8-15.195s-6.921-11.291-7.224-11.764c-5.927-9.245-6.279-9.315-13.629-17.457-6.988-7.74-14.068-15.423-22.268-21.908-3.184-2.519-6.491-4.88-9.879-7.115-1.317-.869,2.669-9.995,3.131-11.26,4.66-12.777,12.256-24.759,14.741-38.252.909-4.949,2.264-9.576-3.233-10.733a115.972,115.972,0,0,0-22.6-2.487,1.405,1.405,0,0,0-.839.169,1.653,1.653,0,0,0-.515.935q-.374,1.284-.771,2.563" fill="#284b59"/>
      <path id="path232" d="M384.216-288.979c-.712,4.681-3,9.121-5.959,11.509a11.039,11.039,0,0,1-6.951,2.56h-.08l-.008,1.333h.088a12.368,12.368,0,0,0,7.791-2.859c3.3-2.687,5.668-7.375,6.437-12.341l-1.319-.2" fill="#335e6f"/>
      <path id="path234" d="M427.639-159.049h0c-5.156-4.157-9.74-9.587-14.216-14.936h0c4.476,5.348,9.06,10.779,14.216,14.936h0" fill="#7498a5"/>
      <path id="path236" d="M427.642-159.049h-.005c-5.156-4.157-9.74-9.588-14.216-14.936.025-1.309.044-2.62.067-3.932,5.011,5.871,10.019,12.259,15.669,17.263a11.921,11.921,0,0,1-1.515,1.607" fill="#26414c"/>
      <path id="path238" d="M361.414-244.018q.744-2.176,1.424-4.372h0c-.456,1.464-.927,2.921-1.424,4.372m3.455-11.185c1.237-4.26,2.459-8.525,3.884-12.729h0c-1.425,4.2-2.647,8.469-3.884,12.729h0m5.663-17.628h0c.1-.256.2-.513.3-.768-.1.255-.2.512-.3.768" fill="#aeabaa"/>
      <path id="path240" d="M368.752-267.933c.557-1.644,1.145-3.277,1.779-4.9h0c-.633,1.62-1.221,3.255-1.779,4.9h0" fill="#717273"/>
      <path id="path242" d="M362.838-248.39c.7-2.263,1.369-4.537,2.031-6.813h0c-.661,2.276-1.327,4.551-2.031,6.813h0" fill="#717273"/>
      <path id="path244" d="M394.63-194.748c-3.005-3.129-6.073-6.2-9.264-9.14-3.469-3.2-7.113-6.133-10.857-9-3.423-2.621-7.465-4.3-10.628-7.353a15.834,15.834,0,0,1-4.824-11.921,37.557,37.557,0,0,1,2.357-11.855h0c.5-1.451.968-2.908,1.424-4.372.7-2.263,1.369-4.537,2.031-6.813,1.237-4.26,2.459-8.525,3.884-12.729.557-1.644,1.145-3.279,1.779-4.9.1-.256.2-.513.3-.768.029-.076.06-.152.091-.228.1-.248.2-.495.3-.743l-.005.992h.091a11.7,11.7,0,0,0,3.048-.408c-.021.052-.043.105-.063.157-3.919,9.709-6.133,19.936-9.513,29.809-2.765,8.079-4.319,17.22,2.467,23.776,3.163,3.055,7.205,4.732,10.628,7.353,3.744,2.868,7.389,5.8,10.859,9q3.034,2.8,5.937,5.733-.026,1.7-.043,3.407m-23.268-80.164c1.3-3.245,2.548-6.513,3.717-9.815,1.049.2,2.1.419,3.143.635-1.021,2.856-2.1,5.688-3.221,8.5a10.531,10.531,0,0,1-3.639.679" fill="#26414c"/>
      <path id="path246" d="M371.31-273.577h-.091l.005-.992c.045-.113.092-.227.137-.341A10.531,10.531,0,0,0,375-275.59q-.32.8-.643,1.605a11.7,11.7,0,0,1-3.048.408" fill="#2f505e"/>
      <path id="path248" d="M395.983-236.011q-.4,8.6-.744,17.2c-.405,10.331-.644,20.633-.644,30.971-.347,13.588-2.249,27.891-4.149,41.327,5.781,1.707,12.852,1.805,18.836,1.428.571-.036,1.884-7.1,2.057-7.912q.814-3.814,1.295-7.693c.875-6.993.741-14,.933-21.044q.242-8.858.715-17.711a146.954,146.954,0,0,1,2.3-16.392c2.376-11.156,5.544-22.121,8.212-33.207,3.168-13.169,6.256-27.1,3.989-40.667a7.991,7.991,0,0,0-1.081-3.245,7.008,7.008,0,0,0-2.2-1.891,30.794,30.794,0,0,0-15.783-4.629c-4.039-.047-8.716,1.227-10.352,5.2a14.331,14.331,0,0,0-.775,4.828c-.8,17.813-1.776,35.619-2.607,53.431" fill="#335e6f"/>
      <path id="path250" d="M403.828-144.7a48.279,48.279,0,0,1-13.315-1.6c0-.013,0-.028.007-.041l.436-.025a46.4,46.4,0,0,0,10.927,1.439c1.251.109,2.512.176,3.768.208q-.9.02-1.823.021" fill="#522d1e"/>
      <path id="path252" d="M390.52-146.34l.02-.143c.139.04.276.08.416.117l-.436.025" fill="#472a1d"/>
      <path id="path254" d="M401.883-144.926a46.4,46.4,0,0,1-10.927-1.439c-.14-.037-.277-.077-.416-.117,1.891-13.384,3.777-27.619,4.123-41.144,0-10.337.239-20.64.644-30.971q.338-8.6.744-17.2c.705-15.121,1.516-30.237,2.235-45.36l3.643.361c-.713,15-1.517,30-2.216,45q-.4,8.6-.744,17.2c-.407,10.331-.645,20.633-.645,30.971-.347,13.588-2.249,27.891-4.149,41.328a39.636,39.636,0,0,0,7.709,1.372" fill="#2f505e"/>
      <path id="path256" d="M421.539-432.81c-4.779-.847-10.292-.939-14.532,1.773-8.277,5.292-12.605,14.779-13.835,24.271a55,55,0,0,0,1.037,18.777c1.049,4.791,3.16,9.057,8.259,10.351,18.932,4.8,35.435-14.656,37.5-31.881.619-5.172.113-10.689-2.965-15.063-3.485-4.952-9.719-7.209-15.46-8.228" fill="#eda779"/>
      <path id="path258" d="M416.724-282.906l0,.341c.007,4.909,1.551,9.775,4.295,12.9a12.373,12.373,0,0,0,7.295,4.131l.213-1.316a11.037,11.037,0,0,1-6.507-3.7c-2.463-2.783-3.968-7.392-3.963-12.02l0-.32-1.333-.021" fill="#4a8594"/>
      <path id="path260" d="M394.248-387.815h0m-.008-.039,0-.013,0,.013m-.009-.039,0-.016,0,.016m-.009-.045,0-.015,0,.015" fill="#aeabaa"/>
      <path id="path262" d="M399.388-379c-2.881-1.921-4.328-5.2-5.14-8.811h0l-.008-.037,0-.013c0-.008,0-.017-.005-.025l0-.016c0-.009,0-.02-.005-.029l0-.015-.008-.036h0a59.046,59.046,0,0,1-1.428-12.6,48.141,48.141,0,0,1,.391-6.179,39.77,39.77,0,0,1,4.411-13.961,22.475,22.475,0,0,0,3.276.968,39.014,39.014,0,0,0-5.225,15.363,55,55,0,0,0,1.037,18.777A17.46,17.46,0,0,0,399.388-379" fill="#c28b66"/>
      <path id="path264" d="M432.519-319.462c-1.892,12.561-1.148,28.819-.653,41.473,0,.056-39.627-3.648-44.227-4.317-.271-.04-.543-.079-.813-.121-3.949-.637-7.827-1.536-11.748-2.3-.045-.008,4.285-18.861,4.415-20.115,1.144-11.108,2.115-22.189,2.311-33.363.1-5.441-.019-10.871-.136-16.311-.105-4.8-.039-10.188,2.183-14.571,1.465-2.889,3.932-3.169,6.941-3.1,13.588.332,27.059,2.136,40.559,3.629a14.864,14.864,0,0,1,4.436.957c4.148,1.843,3.655,6.516,3.272,10.267-1.3,12.735-4.635,25.212-6.539,37.867" fill="#3742fa"/>
      <g id="g266">
        <g id="g268" clip-path="url(#clip-path-2)">
          <path id="path274" d="M423.448-362.124c2.379-2.063,5.3-5.62,3.705-8.953-3.96-8.3-18.585-7.691-25.407-3.759-4.276,2.463-4.619,8.68-2.2,12.535,2.026,3.229,5.378,4.7,9.329,5.012a21.747,21.747,0,0,0,12.678-3.4,17.687,17.687,0,0,0,1.9-1.437" fill="#2a36ff"/>
          <path id="path276" d="M420.226-364.266c1.747-1.515,3.889-4.127,2.721-6.575-2.908-6.1-13.647-5.647-18.656-2.76-3.14,1.808-3.392,6.375-1.616,9.2,3.351,5.341,11.641,4.143,16.159,1.187a12.905,12.905,0,0,0,1.392-1.056" fill="#dc905f"/>
        </g>
      </g>
      <path id="path278" d="M431.859-277.989h.007c0-.1-.008-.191-.011-.285h0l.011.285h-.007m-.3-.021c-.371-.029-1.063-.091-2.016-.176h0c.952.085,1.647.147,2.016.176" fill="#4d9cb1"/>
      <path id="path280" d="M398.207-281.169c-2.6-.259-4.916-.5-6.747-.692,1.831.2,4.151.433,6.747.692h0" fill="#26414c"/>
      <path id="path282" d="M429.542-278.186c-2.421-.217-6.517-.6-11.232-1.04h0c4.716.445,8.811.824,11.232,1.041h0m-12.6-1.169c-4.836-.457-10.195-.971-15.016-1.444h0c4.821.473,10.18.987,15.016,1.444h0m-18.659-1.805-.079-.008h0l.079.008h0" fill="#2f505e"/>
      <path id="path284" d="M401.928-280.8l-3.643-.361h0l3.643.361h0" fill="#2b4550"/>
      <path id="path286" d="M418.31-279.226l-1.365-.129h0l1.365.128h0" fill="#416e7c"/>
      <path id="path288" d="M390.824-372.18h-.033c-.247-.005-.489-.009-.728-.009h0c.239,0,.481,0,.727.009h.033" fill="#d4d3d1"/>
      <path id="path290" d="M431.859-277.989c-.027,0-.129-.007-.3-.021-.369-.029-1.064-.091-2.016-.176-2.421-.217-6.516-.6-11.232-1.041l-1.365-.128c-4.836-.457-10.195-.971-15.016-1.444l-3.643-.361-.079-.008c-2.6-.259-4.916-.5-6.747-.692s-3.164-.349-3.815-.444h-.007c-.271-.04-.541-.079-.812-.121-3.949-.637-7.828-1.536-11.749-2.3h0c-.045-.009,4.285-18.861,4.415-20.115,1.144-11.108,2.115-22.189,2.311-33.363.1-5.441-.017-10.872-.136-16.311h0c-.1-4.8-.037-10.188,2.184-14.571,1.344-2.653,3.533-3.107,6.212-3.107.239,0,.481,0,.728.009h.033c.388.011.773.032,1.161.044a5.363,5.363,0,0,0-4.837,3.052c-2.221,4.383-2.288,9.767-2.183,14.571.117,5.439.231,10.869.136,16.311-.2,11.173-1.167,22.255-2.311,33.363-.129,1.253-4.46,20.105-4.416,20.115,3.923.763,7.8,1.661,11.749,2.3.271.043.543.081.813.121,3.788.553,31.315,3.16,40.917,4.032,0,.095.007.189.011.285h-.007" fill="#2a36ff"/>
      <path id="path292" d="M441.255-398.33c-2.335,5.52-6.56,10.851-12.457,11.911-.477-4.164.995-8.225,1.725-12.272.8-4.429,1.9-13.109-1.585-16.755-1.311-1.372-3.637-1.3-5.372-1.615q-3.566-.648-7.159-1.147c-8.195-1.137-21.491.521-25.681-8.644-1.221-2.671-1.161-6.071.968-8.251,2.252-2.305,5.723-3.371,8.8-3.972,15.2-2.977,40.328.007,43.569,18.809a40.048,40.048,0,0,1-2.8,21.935" fill="#714225"/>
      <path id="path294" d="M428.8-386.419c-.005-.044-.009-.089-.015-.133h0c.005.044.009.089.015.133l.031-.005-.031.005" fill="#4d9cb1"/>
      <path id="path296" d="M428.843-386.427a.068.068,0,0,1,.017,0,.068.068,0,0,0-.017,0m.033-.007a.04.04,0,0,0,.013,0,.04.04,0,0,1-.013,0m.032-.005.011,0-.011,0m.115-.023h0" fill="#4d9cb1"/>
      <path id="path298" d="M428.8-386.419c-.005-.044-.009-.089-.015-.133a14.648,14.648,0,0,1-.079-1.545c0-3.58,1.187-7.092,1.819-10.593a47.456,47.456,0,0,0,.82-8.112c0-3.373-.56-6.713-2.405-8.643-1.311-1.372-3.637-1.3-5.372-1.615q-3.566-.648-7.159-1.147h0c-8.083-1.121-21.128.476-25.5-8.275-.06-.121-.12-.244-.177-.369a8.813,8.813,0,0,1-.8-3.624,6.508,6.508,0,0,1,1.771-4.627l.311-.28a8.239,8.239,0,0,0,.432,5.881c4.191,9.167,17.485,7.508,25.68,8.645q3.592.5,7.159,1.147c1.735.315,4.061.243,5.372,1.613,3.488,3.647,2.385,12.327,1.585,16.756-.729,4.045-2.2,8.107-1.724,12.272,3.849-.693,6.98-3.209,9.344-6.4-2.428,4.327-6.073,8.059-10.827,9.009h0l-.1.02-.011,0-.019,0a.039.039,0,0,1-.013,0l-.016,0a.068.068,0,0,0-.017,0l-.015,0-.031.005" fill="#603924"/>
      <path id="path300" d="M533.5-439.932l-20.98,46.053,28.4,3.759-7.42-49.812" fill="#f0ebef"/>
      <g id="g302">
        <g id="g304" clip-path="url(#clip-path-3)">
          <path id="path310" d="M534.459-419.579a12.218,12.218,0,0,0,5-.809c5.288-2.148,4.728-10.981,4.075-15.493a14.38,14.38,0,0,0-9.024-11.748,7.428,7.428,0,0,0-4.355-.424c-3.185.772-4.857,4.465-6.292,7.083A21.4,21.4,0,0,0,521-430.534c.075,6.436,7.085,10.74,13.456,10.955" fill="#211d1d"/>
        </g>
      </g>
      <path id="path312" d="M512.095-392.639l-34.525,221.8,29.053,11.161,34.293-229.386-28.821-3.572" fill="#ee8918"/>
      <path id="path314" d="M486.04-163.341l-8.471-7.5,9.1,3.5-.631,4.005" fill="#79cfde"/>
      <path id="path316" d="M521.964-391.415l-7.977-.989h0l7.977.988" fill="#9fe0f1"/>
      <path id="path318" d="M513.987-392.4l-1.892-.235,1.892.235h0" fill="#79cfde"/>
      <path id="path320" d="M486.671-167.346l-9.1-3.5,34.525-221.8,1.892.235,7.977.989L486.671-167.346" fill="#f0a03b"/>
      <path id="path322" d="M506.623-159.681l-9.439-1.679.283-1.839,9.156,3.517,5.488-36.7-5.488,36.7" fill="#4d9cb1"/>
      <path id="path324" d="M506.623-159.681l-9.156-3.517L532.411-390.12l8.505,1.053L518.389-238.383l-3.06,20.464-3.219,21.535-5.488,36.7" fill="#c3741c"/>
      <path id="path326" d="M477.569-170.842l30.028,4.535-4.561,31.036a5.162,5.162,0,0,1-5.855,4.357l-20.748-3.036a5.161,5.161,0,0,1-4.336-6.008l5.472-30.884" fill="#63818c"/>
      <g id="g328">
        <g id="g330" clip-path="url(#clip-path-4)">
          <path id="path336" d="M470.152-148.618l36.243,5.376-3.335,15.7-33.769-4.3.861-16.776" fill="#ca4652"/>
          <path id="path338" d="M471.447-154.9l37.513,5.559,1.847-9.007-37.695-5.321-.187,1.32,36.291,5.124-1.308,6.38-36.265-5.375-.2,1.32" fill="#4b6973"/>
        </g>
      </g>
      <path id="path340" d="M532.779-390.954a5.344,5.344,0,0,1-5.539,5.127,5.344,5.344,0,0,1-5.539-5.127,5.345,5.345,0,0,1,5.539-5.127,5.345,5.345,0,0,1,5.539,5.127" fill="#f0ebef"/>
      <path id="path342" d="M540.916-389.64a4.523,4.523,0,0,1-4.373,4.66,4.524,4.524,0,0,1-4.373-4.66,4.524,4.524,0,0,1,4.373-4.661,4.524,4.524,0,0,1,4.373,4.661" fill="#f0ebef"/>
      <path id="path344" d="M522.145-392.007a4.854,4.854,0,0,1-5.025,4.66,4.853,4.853,0,0,1-5.025-4.66,4.853,4.853,0,0,1,5.025-4.66,4.854,4.854,0,0,1,5.025,4.66" fill="#f0ebef"/>
      <path id="path346" d="M434.624-403.6c3.493.079,4.736,3.744,3.745,6.667-1.421,4.193-8.243,6.051-12.157,5.879a1.864,1.864,0,0,1-1.1-.305,1.733,1.733,0,0,1-.471-1.5,9.527,9.527,0,0,1,2.281-4.913c.96-1.265,1.667-3.019,3-3.964a8.215,8.215,0,0,1,4.564-1.861h.136" fill="#eda779"/>
      <path id="path348" d="M529.7-331.71a7.64,7.64,0,0,0,1.512.571c2.231.612,3.672-.468,5.1-2.735a13.931,13.931,0,0,0,2.081-6.9,11.971,11.971,0,0,0-2.069-7.359c-1.437-1.88-3.608-2.6-5.192-1.464a8.188,8.188,0,0,0-1.8,2.125,16.4,16.4,0,0,0-2.571,6.757,11.481,11.481,0,0,0,.379,5.8,5.325,5.325,0,0,0,2.567,3.205" fill="#dc905f"/>
      <path id="path350" d="M418.627-402.83c0,2.065-.981,3.739-2.192,3.739s-2.193-1.673-2.193-3.739.981-3.739,2.193-3.739,2.192,1.675,2.192,3.739" fill="#3d261b"/>
      <path id="path352" d="M402.687-403.363c0,2.064-.983,3.739-2.193,3.739s-2.193-1.675-2.193-3.739.981-3.74,2.193-3.74,2.193,1.675,2.193,3.74" fill="#3d261b"/>
      <path id="path354" d="M399.32-391.628a25.011,25.011,0,0,0,6.133,1.347c5.173.448,11.785-1.855,11.785-1.855s-1.489,7.953-6.031,9.517-8.864,1-10.7-1.164c-1.737-2.053-1.191-7.845-1.191-7.845" fill="#fff"/>
      <path id="path356" d="M415.051-412.692a16.192,16.192,0,0,1,6.919,2.565c1.071.719,2.073-1.013,1.008-1.728a17.5,17.5,0,0,0-7.395-2.765c-1.26-.175-1.8,1.753-.532,1.928" fill="#60331d"/>
      <path id="path358" d="M396.7-412.334a13.294,13.294,0,0,1,6.428-.465c1.259.228,1.8-1.7.532-1.928a15.48,15.48,0,0,0-7.492.465c-1.224.384-.7,2.315.532,1.928" fill="#60331d"/>
      <path id="path360" d="M408.554-395.219c0,.673-1.156,1.219-2.581,1.219s-2.581-.545-2.581-1.219,1.156-1.219,2.581-1.219,2.581.545,2.581,1.219" fill="#dc905f"/>
      <path id="path362" d="M418.315-345.856l11.937,1.829-2.151,12.26-10.324-2.1.537-11.993" fill="#3742fa"/>
    </g>
  </g>
</svg>
