<svg xmlns="http://www.w3.org/2000/svg" width="368.875" height="305" viewBox="0 0 368.875 305">
  <g id="logo" transform="translate(-1362.065 -418)">
    <path id="Path_53" data-name="Path 53" d="M143.892-164.546,82.961,0H61.733L2.065-164.546H23.523L69.077-34.08A77.465,77.465,0,0,1,72.4-19.507h.459a71.475,71.475,0,0,1,3.787-14.8l46.472-130.237Z" transform="translate(1360 723)" fill="#fff"/>
    <path id="Path_54" data-name="Path 54" d="M40.85,0H21.572V-164.546H40.85Z" transform="translate(1516 650)" fill="#fff"/>
    <path id="Path_52" data-name="Path 52" d="M141.941-66.553q0,69.307-62.537,69.307-59.9,0-59.9-66.667V-164.546H38.784v99.37q0,50.6,42.686,50.6,41.194,0,41.194-48.882V-164.546h19.277Z" transform="translate(1589 715)" fill="#fff"/>
    <g id="Path_51" data-name="Path 51" transform="translate(1526 418)" fill="#ececec">
      <path d="M 21.5 42.5 C 18.6648006439209 42.5 15.91466999053955 41.94483184814453 13.32600975036621 40.84991836547852 C 10.82540035247803 39.79225158691406 8.579520225524902 38.27801132202148 6.650760173797607 36.34923934936523 C 4.72199010848999 34.42047882080078 3.207750082015991 32.17459869384766 2.150079965591431 29.67399024963379 C 1.055170059204102 27.08532905578613 0.5 24.3351993560791 0.5 21.5 C 0.5 18.6648006439209 1.055170059204102 15.91466999053955 2.150079965591431 13.32600975036621 C 3.207750082015991 10.82540035247803 4.72199010848999 8.579520225524902 6.650760173797607 6.650760173797607 C 8.579520225524902 4.72199010848999 10.82540035247803 3.207750082015991 13.32600975036621 2.150079965591431 C 15.91466999053955 1.055170059204102 18.6648006439209 0.5 21.5 0.5 C 24.3351993560791 0.5 27.08532905578613 1.055170059204102 29.67399024963379 2.150079965591431 C 32.17459869384766 3.207750082015991 34.42047882080078 4.72199010848999 36.34923934936523 6.650760173797607 C 38.27801132202148 8.579520225524902 39.79225158691406 10.82540035247803 40.84991836547852 13.32600975036621 C 41.94483184814453 15.91466999053955 42.5 18.6648006439209 42.5 21.5 C 42.5 24.3351993560791 41.94483184814453 27.08532905578613 40.84991836547852 29.67399024963379 C 39.79225158691406 32.17459869384766 38.27801132202148 34.42047882080078 36.34923934936523 36.34923934936523 C 34.42047882080078 38.27801132202148 32.17459869384766 39.79225158691406 29.67399024963379 40.84991836547852 C 27.08532905578613 41.94483184814453 24.3351993560791 42.5 21.5 42.5 Z" stroke="none"/>
      <path d="M 21.5 1 C 18.73208045959473 1 16.0474796295166 1.541881561279297 13.52078056335449 2.610580444335938 C 11.07978057861328 3.643039703369141 8.887321472167969 5.121299743652344 7.004310607910156 7.004310607910156 C 5.121299743652344 8.887321472167969 3.643039703369141 11.07978057861328 2.610580444335938 13.52078056335449 C 1.541881561279297 16.0474796295166 1 18.73208045959473 1 21.5 C 1 24.26791954040527 1.541881561279297 26.9525203704834 2.610580444335938 29.47922134399414 C 3.643039703369141 31.92021942138672 5.121299743652344 34.11267852783203 7.004310607910156 35.99568939208984 C 8.887321472167969 37.87870025634766 11.07978057861328 39.35696029663086 13.52078056335449 40.38941955566406 C 16.0474796295166 41.4581184387207 18.73208045959473 42 21.5 42 C 24.26791954040527 42 26.9525203704834 41.4581184387207 29.47922134399414 40.38941955566406 C 31.92021942138672 39.35696029663086 34.11267852783203 37.87870025634766 35.99568939208984 35.99568939208984 C 37.87870025634766 34.11267852783203 39.35696029663086 31.92021942138672 40.38941955566406 29.47922134399414 C 41.4581184387207 26.9525203704834 42 24.26791954040527 42 21.5 C 42 18.73208045959473 41.4581184387207 16.0474796295166 40.38941955566406 13.52078056335449 C 39.35696029663086 11.07978057861328 37.87870025634766 8.887321472167969 35.99568939208984 7.004310607910156 C 34.11267852783203 5.121299743652344 31.92021942138672 3.643039703369141 29.47922134399414 2.610580444335938 C 26.9525203704834 1.541881561279297 24.26791954040527 1 21.5 1 M 21.5 0 C 33.37411880493164 0 43 9.625881195068359 43 21.5 C 43 33.37411880493164 33.37411880493164 43 21.5 43 C 9.625881195068359 43 0 33.37411880493164 0 21.5 C 0 9.625881195068359 9.625881195068359 0 21.5 0 Z" stroke="none" fill="#707070"/>
    </g>
  </g>
</svg>
